<svg style="position: absolute; width: 0; height: 0; overflow: hidden;" version="1.1"
     xmlns="http://www.w3.org/2000/svg">
    <defs>
        <symbol id="icon-exchange" viewBox="0 0 512.422 512.422">
            <path d="M41.053 223.464c2.667 1.067 5.76 1.067 8.427-.213l83.307-37.867c5.333-2.56 7.573-8.96 5.013-14.293-2.453-5.12-8.533-7.467-13.76-5.12l-58.347 26.56C93.533 109.224 171.08 53.544 260.36 53.544c93.547 0 175.36 62.507 198.933 152 1.493 5.653 7.36 9.067 13.013 7.573 5.653-1.493 9.067-7.36 7.573-13.013-26.027-98.773-116.267-167.893-219.52-167.893-98.453 0-184.107 61.44-215.04 153.387l-24.533-61.333c-1.813-5.547-7.893-8.64-13.44-6.827-5.547 1.813-8.64 7.893-6.827 13.44.107.427.32.853.533 1.28l34.027 85.333c1.067 2.667 3.2 4.907 5.974 5.973zM511.773 380.904c-.107-.213-.213-.427-.213-.64l-34.027-85.333c-1.067-2.667-3.2-4.907-5.973-5.973-2.667-1.067-5.76-.96-8.427.213l-83.307 37.867c-5.44 2.24-8 8.533-5.76 13.973 2.24 5.44 8.533 8 13.973 5.76l.64-.32 58.347-26.56c-28.053 83.307-105.707 138.987-194.88 138.987-93.547 0-175.36-62.507-198.933-152-1.493-5.653-7.36-9.067-13.013-7.573-5.653 1.493-9.067 7.36-7.573 13.013 25.92 98.88 116.267 167.893 219.52 167.893 98.453 0 184-61.44 215.04-153.387l24.533 61.333c2.027 5.547 8.107 8.427 13.653 6.4 5.546-2.026 8.426-8.106 6.4-13.653z"/>
        </symbol>
        <symbol id="icon-arrow" xmlns="http://www.w3.org/2000/svg" viewBox="0 0 443.52 443.52">
            <path d="M336.226 209.591l-204.8-204.8c-6.78-6.548-17.584-6.36-24.132.42-6.388 6.614-6.388 17.099 0 23.712l192.734 192.734-192.734 192.734c-6.663 6.664-6.663 17.468 0 24.132 6.665 6.663 17.468 6.663 24.132 0l204.8-204.8c6.663-6.665 6.663-17.468 0-24.132z"/>
        </symbol>
        <symbol id="icon-up-arrow" xmlns="http://www.w3.org/2000/svg" viewBox="0 0 512 512">
            <path d="M374.176 110.386l-104-104.504-.019-.018c-7.818-7.832-20.522-7.807-28.314.002l-.019.018-104 104.504c-7.791 7.829-7.762 20.493.068 28.285 7.829 7.792 20.492 7.762 28.284-.067L236 68.442V492c0 11.046 8.954 20 20 20s20-8.954 20-20V68.442l69.824 70.162c7.792 7.829 20.455 7.859 28.284.067 7.831-7.793 7.858-20.457.068-28.285z"/>
        </symbol>
        <symbol id="icon-down-arrow" xmlns="http://www.w3.org/2000/svg" viewBox="0 0 512 512">
            <path d="M374.108 373.328c-7.829-7.792-20.492-7.762-28.284.067L276 443.557V20c0-11.046-8.954-20-20-20s-20 8.954-20 20v423.558l-69.824-70.164c-7.792-7.829-20.455-7.859-28.284-.067-7.83 7.793-7.859 20.456-.068 28.285l104 104.504.019.018c7.792 7.809 20.496 7.834 28.314.001l.019-.018 104-104.504c7.79-7.828 7.763-20.492-.068-28.285z"/>
        </symbol>
    </defs>
</svg>
