<svg xmlns="http://www.w3.org/2000/svg" viewBox="0 0 32 32"><path d="M29 17.6c-1.2-.4-2-1-2-1.6s.8-1.3 2-1.6c.5-.2.8-.7.7-1.2-.4-1.8-1-3.4-2.1-4.9-.3-.4-.8-.6-1.3-.3-1.1.6-2.2.7-2.6.3-.4-.4-.3-1.5.3-2.6.2-.5.1-1-.3-1.3-1.5-1-3.2-1.7-4.9-2.1-.5-.1-1 .2-1.2.7-.4 1.2-1 2-1.6 2s-1.3-.8-1.6-2c-.2-.5-.7-.8-1.2-.7-1.8.4-3.4 1-4.9 2.1-.5.2-.6.8-.4 1.2.6 1.1.7 2.2.3 2.6-.4.4-1.4.3-2.6-.3-.5-.2-1-.1-1.3.3-1 1.5-1.7 3.2-2.1 4.9-.1.5.2 1 .7 1.2 1.2.4 2 1 2 1.6s-.8 1.3-2 1.6c-.5.2-.8.7-.7 1.2.4 1.8 1 3.4 2.1 4.9.3.4.8.6 1.3.3 1.1-.6 2.2-.7 2.6-.3.4.4.3 1.5-.3 2.6-.2.5-.1 1 .3 1.3 1.5 1 3.2 1.7 4.9 2.1.5.1 1-.2 1.2-.7.4-1.2 1-2 1.6-2s1.3.8 1.6 2c.1.4.5.7 1 .7h.2c1.8-.4 3.4-1 4.9-2.1.4-.3.6-.8.3-1.3-.6-1.1-.7-2.2-.3-2.6.4-.4 1.5-.3 2.6.3.5.2 1 .1 1.3-.3 1-1.5 1.7-3.2 2.1-4.9.2-.4-.1-.9-.6-1.1zM16 23c-3.9 0-7-3.1-7-7s3.1-7 7-7 7 3.1 7 7-3.1 7-7 7z"/></svg>