<svg xmlns="http://www.w3.org/2000/svg" width="612" height="612"><path d="M267.214 325.125H95.625c-10.557 0-19.125 8.568-19.125 19.125s8.568 19.125 19.125 19.125h126.761L92.374 493.406l27.043 27.042 129.82-129.82-.612 125.747c0 10.557 8.568 19.125 19.125 19.125s19.125-8.568 19.125-19.125V344.25c0-5.661-2.353-10.231-6.043-13.388-3.462-3.518-8.282-5.737-13.618-5.737zm249.161-76.5H389.596l130.03-130.031-27.042-27.043-129.821 129.821.612-125.747c0-10.557-8.568-19.125-19.125-19.125s-19.125 8.568-19.125 19.125V267.75c0 5.661 2.333 10.232 6.044 13.388 3.461 3.538 8.28 5.737 13.616 5.737h171.59c10.557 0 19.125-8.568 19.125-19.125s-8.568-19.125-19.125-19.125zM535.5 0h-459C34.253 0 0 34.253 0 76.5v459C0 577.747 34.253 612 76.5 612h459c42.247 0 76.5-34.253 76.5-76.5v-459C612 34.253 577.747 0 535.5 0zm38.25 535.5c0 21.114-17.117 38.25-38.25 38.25h-459c-21.133 0-38.25-17.136-38.25-38.25v-459c0-21.114 17.117-38.25 38.25-38.25h459c21.133 0 38.25 17.117 38.25 38.25v459z"/></svg>