<svg xmlns="http://www.w3.org/2000/svg" width="612" height="612"><path d="M243.958 340.177l-91.379 91.379L153 382.5c0-10.557-8.568-19.125-19.125-19.125s-19.125 8.568-19.125 19.125v95.625c0 5.661 2.333 10.231 6.043 13.388 3.461 3.538 8.281 5.737 13.617 5.737h95.09c10.557 0 19.125-8.568 19.125-19.125S240.057 459 229.5 459h-50.28l91.781-91.781-27.043-27.042zM229.5 153c10.557 0 19.125-8.568 19.125-19.125s-8.568-19.125-19.125-19.125h-95.089c-5.336 0-10.156 2.219-13.617 5.737-3.71 3.156-6.043 7.727-6.043 13.388V229.5c0 10.557 8.568 19.125 19.125 19.125S153 240.057 153 229.5l-.421-49.075 91.379 91.379 27.043-27.043L179.239 153H229.5zm248.625 210.375c-10.557 0-19.125 8.568-19.125 19.125l.421 49.075-91.38-91.38-27.042 27.043L432.779 459H382.5c-10.557 0-19.125 8.568-19.125 19.125s8.568 19.125 19.125 19.125h95.09c5.354 0 10.155-2.219 13.616-5.757 3.711-3.137 6.044-7.707 6.044-13.368V382.5c0-10.557-8.568-19.125-19.125-19.125zm-.535-248.625H382.5c-10.557 0-19.125 8.568-19.125 19.125S371.943 153 382.5 153h50.261l-91.781 91.781 27.043 27.043 91.379-91.379L459 229.5c0 10.557 8.568 19.125 19.125 19.125s19.125-8.568 19.125-19.125v-95.625c0-5.661-2.353-10.232-6.044-13.388-3.461-3.518-8.28-5.737-13.616-5.737zM535.5 0h-459C34.253 0 0 34.253 0 76.5v459C0 577.747 34.253 612 76.5 612h459c42.247 0 76.5-34.253 76.5-76.5v-459C612 34.253 577.747 0 535.5 0zm38.25 535.5c0 21.133-17.117 38.25-38.25 38.25h-459c-21.133 0-38.25-17.117-38.25-38.25v-459c0-21.114 17.117-38.25 38.25-38.25h459c21.133 0 38.25 17.136 38.25 38.25v459z"/></svg>