<svg style="position: absolute; width: 0; height: 0; overflow: hidden;" version="1.1" xmlns="http://www.w3.org/2000/svg" xmlns:xlink="http://www.w3.org/1999/xlink">
<defs>
<symbol id="icon-exchange" viewBox="0 0 32 32">
<path d="M2.564 13.955c0.167 0.067 0.36 0.067 0.526-0.013l5.202-2.365c0.333-0.16 0.473-0.56 0.313-0.893-0.153-0.32-0.533-0.466-0.859-0.32l-3.644 1.659c1.739-5.202 6.581-8.68 12.157-8.68 5.842 0 10.951 3.903 12.423 9.492 0.093 0.353 0.46 0.566 0.813 0.473s0.566-0.46 0.473-0.813c-1.625-6.168-7.261-10.485-13.709-10.485-6.148 0-11.497 3.837-13.429 9.579l-1.532-3.83c-0.113-0.346-0.493-0.54-0.839-0.426s-0.54 0.493-0.426 0.839c0.007 0.027 0.020 0.053 0.033 0.080l2.125 5.329c0.067 0.167 0.2 0.306 0.373 0.373z"></path>
<path d="M31.959 23.787c-0.007-0.013-0.013-0.027-0.013-0.040l-2.125-5.329c-0.067-0.167-0.2-0.306-0.373-0.373-0.167-0.067-0.36-0.060-0.526 0.013l-5.202 2.365c-0.34 0.14-0.5 0.533-0.36 0.873s0.533 0.5 0.873 0.36c0.013-0.007 0.027-0.013 0.040-0.020l3.644-1.659c-1.752 5.202-6.601 8.68-12.17 8.68-5.842 0-10.951-3.903-12.423-9.492-0.093-0.353-0.46-0.566-0.813-0.473s-0.566 0.46-0.473 0.813c1.619 6.175 7.261 10.485 13.709 10.485 6.148 0 11.491-3.837 13.429-9.579l1.532 3.83c0.127 0.346 0.506 0.526 0.853 0.4s0.526-0.506 0.4-0.853z"></path>
</symbol>
</defs>
</svg>
