<svg aria-hidden="true" style="position: absolute; width: 0; height: 0; overflow: hidden;" version="1.1" xmlns="http://www.w3.org/2000/svg" xmlns:xlink="http://www.w3.org/1999/xlink">
<defs>
<symbol id="icon-arrow" viewBox="0 0 32 32">
<path d="M30 14v4h-22v4l-6-6 6-6v4z"></path>
</symbol>
<symbol id="icon-cancel" viewBox="0 0 32 32">
<path d="M19.803 16l11.409-11.409c1.050-1.050 1.050-2.753 0-3.803s-2.753-1.050-3.803 0l-11.409 11.409-11.409-11.409c-1.050-1.050-2.753-1.050-3.803 0s-1.050 2.753 0 3.803l11.409 11.409-11.409 11.409c-1.050 1.050-1.050 2.753 0 3.803s2.753 1.050 3.803 0l11.409-11.409 11.409 11.409c1.050 1.050 2.753 1.050 3.803 0s1.050-2.753 0-3.803l-11.409-11.409z"></path>
</symbol>
<symbol id="icon-cardiogram" viewBox="0 0 32 32">
<path d="M31.985 11.293c-0.119-2.216-1.057-4.298-2.643-5.86-1.607-1.584-3.703-2.456-5.904-2.456-3.481 0-6.301 2.894-7.426 4.242-1.089-1.358-3.828-4.242-7.451-4.242-2.2 0-4.297 0.872-5.903 2.456-1.586 1.563-2.524 3.644-2.643 5.86-0.118 2.211 0.447 4.133 1.831 6.233 1.259 1.911 4.565 4.954 7.012 6.979 2.039 1.687 5.679 4.517 7.157 4.517 1.501 0 5.126-2.823 7.153-4.506 2.429-2.017 5.716-5.057 6.988-6.99 0.931-1.417 1.981-3.406 1.83-6.233zM29.894 15.473h-1.321c0.098-0.302 0.155-0.65 0.155-1.011 0-0.001 0-0.002 0-0.003v0c0-0.847-0.319-1.646-0.859-2.255 0.274-0.102 0.508-0.254 0.701-0.447l0-0c0.366-0.365 0.567-0.85 0.567-1.367 0-0.987-0.745-1.803-1.703-1.916 0.013-0.088 0.020-0.189 0.020-0.292v-0c0-1.202-0.978-2.18-2.18-2.18-0.72 0-1.36 0.351-1.757 0.891-0.398-0.536-1.035-0.884-1.752-0.884-1.202 0-2.18 0.978-2.18 2.18 0 0.097 0.007 0.193 0.019 0.287-0.95 0.12-1.687 0.932-1.687 1.914 0 0.515 0.201 1 0.565 1.365 0.193 0.194 0.428 0.347 0.69 0.445l0.013 0.004c-0.541 0.61-0.86 1.408-0.86 2.256 0 1.445 0.907 2.681 2.181 3.171l-1.049 2.651-3.43-6.48c-0.107-0.199-0.313-0.332-0.551-0.333h-0.002c0 0 0 0 0 0-0.237 0-0.443 0.132-0.549 0.327l-0.002 0.003-2.725 5.087-0.56-1.43c-0.126-0.321-0.488-0.48-0.81-0.354s-0.48 0.488-0.354 0.81l1.053 2.692c0.094 0.235 0.319 0.397 0.582 0.397 0.237 0 0.444-0.132 0.549-0.327l0.002-0.003 2.811-5.247 3.516 6.642c0.107 0.199 0.314 0.332 0.552 0.332 0.262 0 0.487-0.162 0.58-0.391l0.002-0.004 1.64-4.147c0.655-0.008 1.264-0.2 1.779-0.526l-0.014 0.008c0.512 0.325 1.135 0.519 1.803 0.519h0c1.004 0 1.908-0.438 2.53-1.133h1.326c-0.025 0.039-0.050 0.078-0.075 0.116-0.968 1.473-3.678 4.171-6.741 6.715-3.728 3.095-5.843 4.218-6.355 4.218-0.502 0-2.609-1.126-6.36-4.23-2.31-1.912-4.414-3.901-5.728-5.391h1.995c0.26 0 0.483-0.159 0.577-0.384l0.002-0.004 2.003-4.897 0.546 1.395c0.126 0.321 0.488 0.48 0.81 0.354s0.48-0.488 0.354-0.81l-1.115-2.85c-0.093-0.233-0.316-0.395-0.577-0.397h-0.005c-0.26 0-0.483 0.159-0.577 0.384l-0.002 0.004-2.435 5.955h-2.57c-0.014-0.021-0.029-0.042-0.043-0.063-1.227-1.863-1.729-3.553-1.626-5.479 0.21-3.933 3.484-7.133 7.298-7.133 3.961 0 6.89 4.325 6.919 4.368 0.112 0.167 0.299 0.276 0.512 0.279h0c0.205 0.004 0.401-0.097 0.52-0.265 0.031-0.044 3.127-4.382 6.927-4.382 3.814 0 7.088 3.2 7.298 7.133 0.077 1.444-0.187 2.757-0.843 4.113zM20.985 12.443c0.221-0.083 0.381-0.282 0.406-0.521l0-0.003c0.026-0.254 0.093-0.486 0.193-0.699l-0.006 0.013 0.006-0.012c0.214-0.447 0.566-0.801 0.999-1.012l0.013-0.006c0.037-0.015 0.073-0.031 0.109-0.048 0.242-0.102 0.524-0.162 0.82-0.162 0.001 0 0.001 0 0.002 0h-0c0.299 0 0.585 0.061 0.845 0.172 0.021 0.009 0.042 0.019 0.063 0.028 0.454 0.214 0.812 0.568 1.025 1.007l0.006 0.013c0.004 0.009 0.008 0.018 0.013 0.026 0.093 0.198 0.159 0.429 0.184 0.671l0.001 0.009c0.025 0.242 0.185 0.441 0.402 0.522l0.004 0.001c0.842 0.309 1.408 1.119 1.408 2.017 0 1.184-0.963 2.147-2.147 2.147-0.535-0-1.024-0.196-1.399-0.519l0.003 0.002c-0.117-0.1-0.262-0.151-0.407-0.151s-0.29 0.050-0.407 0.151c-0.373 0.321-0.862 0.517-1.396 0.517h-0c-1.184 0-2.147-0.963-2.147-2.147 0-0.897 0.566-1.708 1.408-2.017zM19.368 10.871c-0.123-0.122-0.199-0.292-0.199-0.479 0-0.001 0-0.001 0-0.002v0c0-0.375 0.305-0.68 0.68-0.68 0.184 0 0.357 0.072 0.487 0.203 0.126 0.127 0.195 0.295 0.193 0.472-0.001 0.094-0.020 0.182-0.054 0.263l0.002-0.005c-0.012 0.024-0.023 0.048-0.035 0.072-0.117 0.211-0.339 0.354-0.593 0.354h-0.001c-0.181 0-0.351-0.071-0.48-0.199zM20.836 8.189c0-0.513 0.417-0.93 0.93-0.93s0.93 0.417 0.93 0.93c-0 0.36-0.206 0.672-0.506 0.827-0.033 0.014-0.065 0.028-0.098 0.043-0.102 0.038-0.211 0.060-0.326 0.060-0.513 0-0.93-0.417-0.93-0.93zM24.344 8.181c0-0.513 0.417-0.93 0.93-0.93s0.93 0.417 0.93 0.93-0.417 0.93-0.93 0.93c-0.117 0-0.229-0.023-0.333-0.063-0.022-0.010-0.045-0.020-0.068-0.029-0.313-0.15-0.53-0.469-0.53-0.838zM27.209 11.069h-0.001c-0.254-0-0.476-0.143-0.593-0.353-0.012-0.025-0.024-0.050-0.036-0.075-0.032-0.076-0.051-0.164-0.052-0.256v-0c-0.001-0.178 0.068-0.345 0.194-0.473 0.123-0.125 0.294-0.202 0.484-0.202 0.001 0 0.001 0 0.002 0h-0c0.375 0 0.68 0.305 0.68 0.68 0 0.182-0.071 0.353-0.2 0.482-0.122 0.122-0.29 0.198-0.476 0.198-0.001 0-0.001 0-0.002 0h0z"></path>
<path d="M10.952 15.704c-0.008-0.040-0.020-0.079-0.036-0.117-0.033-0.079-0.079-0.146-0.135-0.203l0 0c-0.057-0.056-0.124-0.102-0.198-0.133l-0.004-0.002c-0.038-0.016-0.078-0.027-0.117-0.036-0.037-0.008-0.079-0.012-0.122-0.012s-0.085 0.004-0.126 0.013l0.004-0.001c-0.126 0.026-0.235 0.086-0.32 0.171l0-0c-0.028 0.028-0.054 0.059-0.076 0.093l-0.001 0.002c-0.066 0.098-0.105 0.218-0.106 0.347v0c0.001 0.129 0.040 0.249 0.107 0.349l-0.001-0.002c0.023 0.034 0.049 0.066 0.078 0.095s0.061 0.055 0.095 0.078c0.064 0.043 0.14 0.076 0.221 0.092l0.004 0.001c0.040 0.008 0.081 0.012 0.122 0.012 0.164 0 0.326-0.067 0.442-0.183 0.029-0.029 0.055-0.061 0.078-0.095s0.042-0.071 0.057-0.108c0.016-0.038 0.028-0.077 0.036-0.117s0.012-0.081 0.012-0.122c0-0.041-0.004-0.082-0.012-0.123z"></path>
</symbol>
<symbol id="icon-clock" viewBox="0 0 32 32">
<path d="M16 0c-8.822 0-16 7.178-16 16s7.178 16 16 16 16-7.178 16-16-7.178-16-16-16zM16 30.831c-8.178 0-14.831-6.653-14.831-14.831s6.653-14.831 14.831-14.831 14.831 6.653 14.831 14.831-6.653 14.831-14.831 14.831z"></path>
<path d="M16 2.739c-7.313 0-13.262 5.949-13.262 13.261s5.949 13.261 13.262 13.261c7.312 0 13.261-5.949 13.261-13.261s-5.949-13.261-13.261-13.261zM16.584 28.077v-1.921c0-0.323-0.262-0.585-0.585-0.585v0c-0.323 0-0.585 0.262-0.585 0.585v0 1.922c-6.203-0.297-11.196-5.29-11.493-11.492h1.922c0.323 0 0.585-0.262 0.585-0.585v0c0-0.323-0.262-0.585-0.585-0.585h-1.922c0.297-6.203 5.29-11.196 11.493-11.493v1.922c0 0 0 0 0 0 0 0.323 0.262 0.585 0.585 0.585 0 0 0 0 0 0v0c0.323 0 0.585-0.262 0.585-0.585v0-1.922c6.203 0.297 11.196 5.289 11.493 11.493h-1.922c-0.323 0-0.585 0.262-0.585 0.585v0c0 0 0 0 0 0 0 0.323 0.262 0.585 0.585 0.585 0 0 0 0 0 0h1.922c-0.297 6.203-5.29 11.196-11.493 11.493z"></path>
<path d="M19.303 15.415h-2.719v-4.711c0-0 0-0 0-0 0-0.323-0.262-0.585-0.585-0.585-0 0-0 0-0 0v0c-0.323 0-0.585 0.262-0.585 0.585v0 5.295c0 0 0 0 0 0 0 0.323 0.262 0.585 0.585 0.585 0 0 0 0 0 0h3.304c0.319-0.005 0.576-0.265 0.576-0.585s-0.257-0.58-0.576-0.585h-0z"></path>
<path d="M25.38 21.078c0 0.323-0.262 0.585-0.585 0.585s-0.585-0.262-0.585-0.585c0-0.323 0.262-0.585 0.585-0.585s0.585 0.262 0.585 0.585z"></path>
<path d="M25.38 10.922c0 0.323-0.262 0.585-0.585 0.585s-0.585-0.262-0.585-0.585c0-0.323 0.262-0.585 0.585-0.585s0.585 0.262 0.585 0.585z"></path>
<path d="M21.662 7.205c0 0.323-0.262 0.585-0.585 0.585s-0.585-0.262-0.585-0.585c0-0.323 0.262-0.585 0.585-0.585s0.585 0.262 0.585 0.585z"></path>
<path d="M11.506 7.205c0 0.323-0.262 0.585-0.585 0.585s-0.585-0.262-0.585-0.585c0-0.323 0.262-0.585 0.585-0.585s0.585 0.262 0.585 0.585z"></path>
<path d="M7.789 10.922c0 0.323-0.262 0.585-0.585 0.585s-0.585-0.262-0.585-0.585c0-0.323 0.262-0.585 0.585-0.585s0.585 0.262 0.585 0.585z"></path>
<path d="M7.789 21.078c0 0.323-0.262 0.585-0.585 0.585s-0.585-0.262-0.585-0.585c0-0.323 0.262-0.585 0.585-0.585s0.585 0.262 0.585 0.585z"></path>
<path d="M11.506 24.796c0 0.323-0.262 0.585-0.585 0.585s-0.585-0.262-0.585-0.585c0-0.323 0.262-0.585 0.585-0.585s0.585 0.262 0.585 0.585z"></path>
<path d="M21.662 24.796c0 0.323-0.262 0.585-0.585 0.585s-0.585-0.262-0.585-0.585c0-0.323 0.262-0.585 0.585-0.585s0.585 0.262 0.585 0.585z"></path>
</symbol>
<symbol id="icon-credit-card" viewBox="0 0 32 32">
<path d="M27.714 27.79h-23.426c-2.364 0-4.287-1.924-4.287-4.287v-15.005c0-2.364 1.923-4.287 4.287-4.287h23.426c2.363 0 4.287 1.923 4.287 4.287v15.005c0.001 2.363-1.923 4.287-4.286 4.287zM4.287 5.435c-1.689 0-3.062 1.373-3.062 3.062v15.005c0 1.689 1.373 3.062 3.062 3.062h23.426c1.689 0 3.062-1.374 3.062-3.062v-15.005c0-1.689-1.374-3.062-3.062-3.062h-23.426zM22.084 7.811c1.528 0 2.767 1.238 2.767 2.767s-1.238 2.768-2.767 2.768-2.767-1.239-2.767-2.768 1.239-2.767 2.767-2.767zM25.942 7.811c1.528 0 2.768 1.238 2.768 2.767s-1.239 2.768-2.768 2.768c-1.529 0-2.767-1.239-2.767-2.768s1.239-2.767 2.767-2.767zM3.292 20.645h5.101v1.837h-5.101v-1.837zM10.064 20.645h5.102v1.837h-5.102v-1.837zM16.834 20.645h5.103v1.837h-5.103v-1.837zM23.606 20.645h5.103v1.837h-5.103v-1.837zM3.292 7.812h9.643v1.837h-9.643v-1.837zM3.292 11.458h5.102v1.837h-5.102v-1.837z"></path>
</symbol>
<symbol id="icon-facebook" viewBox="0 0 32 32">
<path d="M18.518 32h-5.996v-16h-4v-5.514l4-0.002-0.007-3.248c0-4.498 1.22-7.236 6.519-7.236h4.412v5.515h-2.757c-2.064 0-2.163 0.771-2.163 2.209l-0.008 2.76h4.959l-0.585 5.514-4.37 0.002-0.004 16z"></path>
</symbol>
<symbol id="icon-instagram" viewBox="0 0 32 32">
<path d="M4.107 0h23.785c2.259 0 4.107 1.672 4.107 4.107v23.786c0 2.435-1.848 4.107-4.107 4.107h-23.785c-2.26 0-4.107-1.672-4.107-4.107v-23.786c0-2.435 1.848-4.107 4.107-4.107zM23.311 3.555c-0.795 0.002-1.438 0.646-1.44 1.441v3.448c0.002 0.795 0.645 1.438 1.44 1.441h3.617c0.795-0.002 1.438-0.646 1.441-1.441v-3.448c-0.002-0.795-0.646-1.438-1.441-1.441h-3.617zM28.383 13.533h-2.816c0.261 0.82 0.411 1.764 0.411 2.742 0 0.001 0 0.002 0 0.003v-0c0 5.323-4.454 9.637-9.947 9.637s-9.946-4.315-9.946-9.637c0-0.954 0.144-1.875 0.411-2.745h-2.939v13.517c0.002 0.702 0.57 1.27 1.272 1.272h22.284c0.702-0.002 1.27-0.57 1.272-1.272v-13.517h-0.001zM16.030 9.703c-3.549 0-6.427 2.788-6.427 6.227s2.878 6.227 6.427 6.227c3.549 0 6.427-2.788 6.427-6.227s-2.878-6.227-6.427-6.227z"></path>
</symbol>
<symbol id="icon-mail" viewBox="0 0 32 32">
<path d="M31.452 5.753h-30.904c-0.303 0-0.548 0.245-0.548 0.548v0 19.397c0 0.303 0.245 0.548 0.548 0.548v0h30.904c0.303 0 0.548-0.245 0.548-0.548v0-19.397c0-0.303-0.245-0.548-0.548-0.548v0zM26.062 17.603c0.086 0.388 0.174 0.79 0.059 0.989-0.124 0.214-0.524 0.338-0.911 0.458-0.305 0.095-0.621 0.193-0.902 0.356-0.272 0.157-0.507 0.378-0.734 0.591-0.313 0.293-0.608 0.57-0.875 0.57s-0.563-0.277-0.875-0.57c-0.227-0.213-0.462-0.433-0.734-0.591-0.281-0.163-0.597-0.261-0.902-0.356-0.387-0.12-0.787-0.245-0.91-0.458-0.115-0.199-0.027-0.601 0.059-0.989 0.070-0.319 0.143-0.648 0.143-0.986s-0.073-0.667-0.143-0.986c-0.086-0.388-0.174-0.79-0.059-0.989 0.124-0.214 0.524-0.338 0.91-0.458 0.305-0.095 0.621-0.193 0.902-0.356 0.272-0.157 0.507-0.378 0.734-0.591 0.313-0.293 0.608-0.57 0.875-0.57s0.563 0.277 0.875 0.57c0.227 0.213 0.462 0.433 0.734 0.591 0.281 0.163 0.597 0.261 0.902 0.356 0.387 0.12 0.787 0.245 0.91 0.458 0.115 0.199 0.027 0.601-0.059 0.989-0.070 0.319-0.143 0.648-0.143 0.986s0.073 0.667 0.143 0.986zM24.478 12.58c-0.050-0.046-0.102-0.094-0.154-0.143-0.412-0.386-0.924-0.867-1.625-0.867s-1.213 0.481-1.625 0.867c-0.19 0.179-0.37 0.347-0.533 0.441-0.175 0.101-0.419 0.177-0.678 0.258-0.56 0.174-1.196 0.372-1.534 0.956-0.329 0.568-0.187 1.209-0.062 1.774 0.060 0.273 0.117 0.532 0.117 0.75s-0.057 0.476-0.117 0.75c-0.108 0.49-0.228 1.037-0.044 1.544l-2.222 2.249-14.14-14.311h28.28l-5.662 5.73zM9.361 16l-8.265 8.364v-16.728l8.265 8.364zM10.131 16.78l5.479 5.545c0.099 0.101 0.237 0.163 0.39 0.163s0.29-0.062 0.39-0.163l0-0 2.558-2.589c0.288 0.165 0.612 0.267 0.915 0.361 0.259 0.081 0.503 0.157 0.678 0.258 0.163 0.094 0.343 0.263 0.533 0.441 0.412 0.386 0.924 0.867 1.625 0.867s1.213-0.481 1.625-0.867c0.19-0.179 0.37-0.347 0.533-0.442 0.106-0.061 0.238-0.113 0.383-0.163l4.9 4.959h-28.281l8.271-8.371zM26.373 19.779c0.276-0.145 0.525-0.342 0.697-0.638 0.329-0.568 0.187-1.209 0.062-1.774-0.060-0.273-0.117-0.532-0.117-0.75s0.057-0.476 0.117-0.75c0.125-0.565 0.266-1.206-0.063-1.774-0.338-0.585-0.973-0.782-1.534-0.956l-0.051-0.016 5.419-5.485v16.729l-4.531-4.585z"></path>
<path d="M22.699 13.827c-1.538 0-2.79 1.252-2.79 2.79s1.252 2.79 2.79 2.79 2.79-1.252 2.79-2.79-1.252-2.79-2.79-2.79zM22.699 18.31c-0.934 0-1.694-0.76-1.694-1.694s0.76-1.694 1.694-1.694 1.694 0.76 1.694 1.694-0.76 1.694-1.694 1.694z"></path>
</symbol>
<symbol id="icon-pin" viewBox="0 0 32 32">
<path d="M16 0c-5.881 0-10.667 4.785-10.667 10.667 0 1.766 0.441 3.516 1.281 5.069l8.803 15.921c0.117 0.212 0.341 0.344 0.583 0.344s0.466-0.131 0.583-0.344l8.806-15.926c0.836-1.547 1.277-3.298 1.277-5.064 0-5.881-4.785-10.667-10.667-10.667zM24.219 15.091l-8.219 14.865-8.216-14.859c-0.731-1.353-1.117-2.885-1.117-4.43 0-5.146 4.187-9.333 9.333-9.333s9.333 4.187 9.333 9.333c0 1.545-0.386 3.077-1.114 4.424z"></path>
<path d="M16 5.333c-2.941 0-5.333 2.393-5.333 5.333s2.393 5.333 5.333 5.333 5.333-2.393 5.333-5.333-2.393-5.333-5.333-5.333zM16 14.667c-2.206 0-4-1.794-4-4s1.794-4 4-4 4 1.794 4 4c0 2.206-1.794 4-4 4z"></path>
</symbol>
<symbol id="icon-telephone" viewBox="0 0 32 32">
<path d="M31.957 10.453l-1.949-4.677c-0.068-0.161-0.205-0.282-0.373-0.326l-0.004-0.001-2.342-0.607c-6.858-1.778-15.72-1.778-22.578 0l-2.342 0.607c-0.172 0.046-0.309 0.166-0.376 0.324l-0.001 0.004-1.949 4.677c-0.027 0.064-0.043 0.138-0.043 0.216 0 0.068 0.012 0.132 0.034 0.192l-0.001-0.004 0.779 2.183c0.080 0.219 0.286 0.372 0.528 0.372 0.039 0 0.077-0.004 0.114-0.012l-0.004 0.001 7.405-1.481c0.228-0.047 0.403-0.227 0.443-0.453l0-0.003 0.641-3.797c3.53-0.887 8.591-0.887 12.121 0l0.641 3.797c0.040 0.23 0.215 0.41 0.439 0.456l0.004 0.001 7.405 1.481c0.033 0.007 0.071 0.011 0.11 0.011 0.242 0 0.448-0.153 0.527-0.368l0.001-0.004 0.779-2.183c0.021-0.056 0.033-0.121 0.033-0.189 0-0.078-0.016-0.152-0.044-0.219l0.001 0.004zM1.706 12.207l-0.4-1.12 7.172-1.499-0.221 1.309-6.551 1.31zM9.298 6.676c-0.209 0.059-0.366 0.231-0.403 0.444l-0 0.003-0.216 1.276-7.19 1.503 1.432-3.437 2.073-0.537c6.687-1.734 15.328-1.734 22.015 0l2.073 0.537 1.432 3.437-7.19-1.503-0.216-1.276c-0.038-0.216-0.195-0.388-0.4-0.446l-0.004-0.001c-3.821-1.054-9.584-1.054-13.405 0zM30.294 12.207l-6.551-1.31-0.221-1.309 7.172 1.499-0.4 1.12z"></path>
<path d="M26.632 13.75c-0.049-0.214-0.215-0.38-0.427-0.426l-0.004-0.001-3.82-0.816-0.481-3.132c-0.043-0.271-0.275-0.476-0.554-0.476h-1.496v-0.734c0-0.31-0.251-0.561-0.561-0.561s-0.561 0.251-0.561 0.561v0.734h-5.459v-0.734c0-0.31-0.251-0.561-0.561-0.561s-0.561 0.251-0.561 0.561v0.734h-1.496c-0.28 0-0.512 0.205-0.554 0.473l-0 0.003-0.481 3.132-3.82 0.816c-0.215 0.047-0.382 0.213-0.43 0.423l-0.001 0.004-2.594 11.687c-0.008 0.037-0.013 0.078-0.013 0.122v0 2.372c0 0.31 0.251 0.561 0.561 0.561v0h25.356c0.31 0 0.561-0.251 0.561-0.561v0-2.372c0-0.041-0.005-0.082-0.013-0.122l-2.594-11.687zM6.385 14.345l3.846-0.822c0.227-0.050 0.401-0.232 0.437-0.46l0-0.003 0.467-3.039h9.731l0.467 3.039c0.037 0.231 0.21 0.414 0.433 0.463l0.004 0.001 3.846 0.822 2.364 10.653h-23.958l2.364-10.653zM9.437 26.119l-0.722 1.25h-0.853l0.722-1.25h0.853zM10.733 26.119h12.205l-0.722 1.25h-12.205l0.722-1.25zM3.883 26.119h3.406l-0.722 1.25h-2.684v-1.25zM23.511 27.37l0.722-1.25h3.884v1.25h-4.607z"></path>
<path d="M16 23.932c3.319 0 6.020-2.7 6.020-6.020s-2.7-6.020-6.020-6.020-6.020 2.7-6.020 6.020 2.7 6.020 6.020 6.020zM16 13.015c2.701 0 4.898 2.197 4.898 4.898s-2.197 4.898-4.898 4.898-4.898-2.197-4.898-4.898 2.197-4.898 4.898-4.898z"></path>
<path d="M16 20.048c1.177 0 2.135-0.958 2.135-2.135s-0.958-2.135-2.135-2.135c-1.177 0-2.135 0.958-2.135 2.135s0.958 2.135 2.135 2.135zM16 16.899c0.559 0 1.014 0.455 1.014 1.014s-0.455 1.014-1.014 1.014-1.014-0.455-1.014-1.014c0-0.559 0.455-1.014 1.014-1.014z"></path>
</symbol>
<symbol id="icon-twitter" viewBox="0 0 32 32">
<path d="M32 6.079c-1.098 0.5-2.371 0.864-3.706 1.028l-0.063 0.006c1.356-0.812 2.394-2.1 2.885-3.629-1.272 0.752-2.675 1.298-4.171 1.594-1.198-1.278-2.901-2.074-4.791-2.074-3.625 0-6.565 2.939-6.565 6.563 0 0.514 0.058 1.016 0.17 1.496-5.455-0.274-10.292-2.887-13.529-6.859-0.566 0.968-0.888 2.096-0.888 3.299 0 2.278 1.16 4.287 2.919 5.463-1.097-0.037-2.116-0.338-3.006-0.841l0.033 0.017v0.082c0 3.179 2.264 5.833 5.265 6.437-0.55 0.148-1.13 0.23-1.73 0.23-0.424 0-0.834-0.042-1.236-0.122 0.836 2.61 3.259 4.507 6.131 4.559-2.246 1.76-5.077 2.805-8.152 2.805-0.53 0-1.052-0.032-1.566-0.090 2.905 1.866 6.355 2.953 10.062 2.953 12.076 0 18.677-10.002 18.677-18.677l-0.022-0.85c1.29-0.92 2.405-2.076 3.283-3.391z"></path>
</symbol>
<symbol id="icon-bowl" viewBox="0 0 32 32">
<path d="M31.992 21.039l-1.525-10.246c-0.025-2.975-1.831-5.734-4.965-7.577-2.596-1.526-5.971-2.367-9.502-2.367s-6.906 0.841-9.502 2.367c-3.134 1.843-4.94 4.602-4.965 7.577l-1.525 10.246c-0.005 0.035-0.008 0.071-0.008 0.107 0 3.013 2.008 5.803 5.508 7.654 2.866 1.516 6.592 2.351 10.492 2.351s7.625-0.835 10.491-2.351c3.501-1.852 5.509-4.642 5.509-7.654-0-0.038-0.003-0.075-0.009-0.111l0 0.004zM7.236 4.47c2.376-1.397 5.488-2.166 8.764-2.166s6.389 0.769 8.764 2.166c2.7 1.587 4.249 3.914 4.249 6.384s-1.549 4.797-4.249 6.384c-2.376 1.397-5.488 2.166-8.764 2.166s-6.389-0.769-8.764-2.166c-2.7-1.587-4.249-3.914-4.249-6.384s1.549-4.797 4.249-6.384zM25.811 27.514c-2.66 1.407-6.144 2.182-9.811 2.182s-7.151-0.775-9.811-2.182c-2.987-1.58-4.709-3.88-4.733-6.316l1.002-6.73c0.835 1.561 2.211 2.95 4.041 4.025 2.596 1.526 5.971 2.367 9.502 2.367s6.906-0.841 9.502-2.367c1.83-1.076 3.206-2.464 4.041-4.025l1.002 6.73c-0.024 2.436-1.747 4.736-4.733 6.316z"></path>
<path d="M16 17.949c4.988 0 9.391-1.93 10.954-4.803 0.4-0.734 0.603-1.505 0.603-2.292 0-1.969-1.254-3.791-3.531-5.129-2.156-1.267-5.006-1.965-8.027-1.965s-5.871 0.698-8.027 1.965c-2.277 1.339-3.531 3.16-3.531 5.129 0 0.787 0.203 1.558 0.603 2.291 1.564 2.873 5.966 4.803 10.955 4.803zM16 16.493c-4.184 0-7.985-1.503-9.464-3.697 1.479-2.193 5.281-3.695 9.464-3.695s7.985 1.502 9.464 3.695c-1.478 2.194-5.279 3.697-9.464 3.697zM5.898 10.854c0-1.432 0.999-2.808 2.813-3.875 1.935-1.138 4.524-1.764 7.289-1.764s5.354 0.627 7.289 1.764c1.814 1.066 2.813 2.442 2.813 3.875 0 0.128-0.009 0.255-0.025 0.382-2.007-2.19-5.829-3.59-10.078-3.59s-8.071 1.4-10.078 3.59c-0.015-0.114-0.024-0.247-0.025-0.382v-0z"></path>
<path d="M16 22.060c-0.207 0-0.394 0.086-0.526 0.225l-0 0c-0.474 0.497-2.020 2.21-2.020 3.413 0 1.404 1.142 2.547 2.547 2.547s2.547-1.142 2.547-2.547c0-1.203-1.546-2.916-2.020-3.413-0.133-0.139-0.319-0.225-0.526-0.225v0zM16 26.789c-0.602 0-1.091-0.49-1.091-1.091 0-0.323 0.508-1.104 1.091-1.812 0.584 0.709 1.091 1.489 1.091 1.812 0 0.602-0.49 1.091-1.091 1.091z"></path>
<path d="M12.738 12.528h-0.224c-0.402 0-0.728 0.326-0.728 0.728s0.326 0.728 0.728 0.728h0.224c0.402 0 0.728-0.326 0.728-0.728s-0.326-0.728-0.728-0.728z"></path>
<path d="M21.373 12.528h-5.19c-0.402 0-0.728 0.326-0.728 0.728s0.326 0.728 0.728 0.728h5.19c0.402 0 0.728-0.326 0.728-0.728s-0.326-0.728-0.728-0.728z"></path>
</symbol>
<symbol id="icon-collars" viewBox="0 0 32 32">
<path d="M30.558 5.351c-0.831-0.669-2.004-1.264-3.485-1.768-2.967-1.010-6.9-1.566-11.073-1.566s-8.106 0.556-11.073 1.566c-1.481 0.504-2.654 1.099-3.486 1.768-0.956 0.77-1.441 1.619-1.441 2.524v6.995c0 0.905 0.485 1.754 1.441 2.524 0.832 0.669 2.004 1.264 3.486 1.768 2.818 0.959 6.508 1.509 10.448 1.561v2.508h-2.155c-0.239-1.262-1.349-2.219-2.679-2.219-1.504 0-2.727 1.223-2.727 2.727 0 0.654 0.232 1.273 0.642 1.758-0.399 0.47-0.642 1.084-0.642 1.755 0 0.001 0 0.002 0 0.004v-0c0 1.504 1.223 2.727 2.727 2.727 1.33 0 2.441-0.957 2.679-2.219h5.561c0.239 1.262 1.349 2.219 2.679 2.219 1.504 0 2.727-1.223 2.727-2.727 0-0.654-0.232-1.273-0.642-1.758 0.399-0.47 0.642-1.084 0.642-1.755 0-0.001 0-0.002 0-0.004v0c0-1.504-1.223-2.727-2.727-2.727-1.33 0-2.441 0.957-2.679 2.219h-2.155v-2.508c3.94-0.053 7.63-0.602 10.448-1.561 1.481-0.504 2.654-1.099 3.486-1.768 0.956-0.77 1.441-1.619 1.441-2.524v-6.995c-0-0.905-0.485-1.754-1.442-2.524zM19.361 24.481c0.345-0 0.625-0.28 0.625-0.625 0-0.012-0-0.024-0.001-0.036l0 0.002c-0.001-0.024-0.002-0.053-0.002-0.082v-0c0-0.814 0.663-1.477 1.477-1.477s1.477 0.663 1.477 1.477c0 0.499-0.25 0.961-0.668 1.236-0.171 0.113-0.282 0.305-0.282 0.523s0.111 0.409 0.28 0.521l0.002 0.001c0.419 0.275 0.668 0.737 0.668 1.236 0 0.814-0.663 1.477-1.477 1.477s-1.477-0.663-1.477-1.477c0-0.028 0.001-0.055 0.002-0.082 0.001-0.010 0.001-0.023 0.001-0.035 0-0.345-0.28-0.625-0.625-0.625-0 0-0 0-0 0h-6.722c-0.345 0-0.625 0.28-0.625 0.625 0 0.012 0 0.024 0.001 0.036l-0-0.002c0.001 0.027 0.002 0.055 0.002 0.082 0 0.814-0.663 1.477-1.477 1.477s-1.477-0.663-1.477-1.477c0-0.499 0.25-0.961 0.668-1.236 0.171-0.113 0.282-0.305 0.282-0.523s-0.111-0.409-0.28-0.521l-0.002-0.001c-0.418-0.275-0.668-0.737-0.668-1.236 0-0.814 0.663-1.477 1.477-1.477s1.477 0.663 1.477 1.477c0 0.028-0.001 0.055-0.002 0.082-0.001 0.010-0.001 0.023-0.001 0.035 0 0.345 0.28 0.625 0.625 0.625 0 0 0 0 0 0h6.722zM16 19.478c-0.83 0-1.505-0.675-1.505-1.505s0.675-1.505 1.505-1.505 1.505 0.675 1.505 1.505-0.675 1.505-1.505 1.505zM30.75 14.87c0 1.977-4.987 4.16-12.405 4.547 0.258-0.41 0.41-0.908 0.41-1.442 0-0.001 0-0.002 0-0.003v0c0-0.197-0.021-0.389-0.061-0.574 2.426-0.159 4.679-0.521 6.558-1.057 0.332-0.095 0.524-0.441 0.43-0.773s-0.44-0.524-0.773-0.43c-1.929 0.55-4.281 0.909-6.819 1.043-0.506-0.59-1.255-0.964-2.091-0.964-0.84 0-1.594 0.379-2.099 0.974-1.72-0.082-3.354-0.266-4.86-0.549-0.339-0.064-0.666 0.159-0.73 0.499s0.159 0.666 0.499 0.73c1.404 0.264 2.912 0.445 4.493 0.54-0.037 0.169-0.058 0.362-0.058 0.561 0 0 0 0.001 0 0.001v-0c0 0.001 0 0.002 0 0.003 0 0.534 0.153 1.032 0.417 1.454l-0.007-0.011c-7.418-0.387-12.405-2.57-12.405-4.547v-4.632l0.008 0.007c0.052 0.045 0.111 0.096 0.172 0.145l0.011 0.009c0.069 0.055 0.152 0.119 0.236 0.181l0.019 0.013 0.001 0.001c0.047 0.034 0.094 0.068 0.143 0.101l0.022 0.015c0.046 0.031 0.092 0.063 0.139 0.093 0.010 0.006 0.019 0.012 0.029 0.019 0.048 0.031 0.096 0.062 0.145 0.092l0.021 0.013c0.739 0.457 1.653 0.872 2.731 1.239 2.967 1.010 6.899 1.566 11.073 1.566s8.106-0.556 11.073-1.566c1.078-0.367 1.992-0.782 2.731-1.239l0.021-0.013c0.049-0.031 0.097-0.062 0.145-0.092l0.029-0.019c0.047-0.031 0.093-0.062 0.139-0.093l0.022-0.015c0.048-0.034 0.096-0.067 0.143-0.101l0.001-0.001c0.104-0.075 0.187-0.139 0.268-0.204l-0.013 0.010c0.072-0.058 0.131-0.108 0.19-0.159l-0.007 0.006 0.009-0.007v4.632zM4.016 10.473c0.544-0.249 1.289-0.535 2.279-0.812 2.69-0.754 6.136-1.169 9.705-1.169s7.016 0.415 9.705 1.169c0.99 0.277 1.735 0.563 2.279 0.812-2.587 1.153-6.82 2.010-11.984 2.010s-9.398-0.857-11.984-2.010zM30.746 7.967c-0.003 0.042-0.008 0.079-0.014 0.116l0.001-0.007-0.001 0.006c-0.008 0.047-0.017 0.086-0.027 0.123l0.002-0.009c-0.010 0.037-0.018 0.064-0.027 0.091l0.003-0.010-0.005 0.016c-0.017 0.050-0.033 0.089-0.050 0.127l0.004-0.010c-0.007 0.015-0.014 0.030-0.021 0.046-0.014 0.030-0.029 0.060-0.046 0.090l-0.004 0.008c-0.26 0.469-0.751 0.88-1.238 1.201-0.647-0.373-1.686-0.849-3.279-1.296-2.796-0.784-6.363-1.216-10.043-1.216s-7.246 0.432-10.043 1.216c-1.593 0.447-2.632 0.923-3.279 1.296-0.487-0.321-0.978-0.731-1.238-1.201l-0.004-0.008c-0.016-0.030-0.032-0.060-0.046-0.090-0.007-0.015-0.014-0.030-0.021-0.045-0.006-0.013-0.011-0.026-0.016-0.038-0.011-0.026-0.021-0.053-0.030-0.079-0.002-0.005-0.003-0.011-0.005-0.016-0.009-0.024-0.019-0.059-0.028-0.094l-0.002-0.010c-0.006-0.021-0.013-0.052-0.018-0.084l-0.001-0.008-0.001-0.006c-0.005-0.030-0.010-0.067-0.013-0.105l-0-0.004c-0.002-0.027-0.004-0.059-0.004-0.091v-0c0-2.179 6.058-4.608 14.75-4.608s14.75 2.428 14.75 4.608c0 0.030-0.002 0.061-0.004 0.092z"></path>
<path d="M25.694 6.094c-0.026-0.126-0.086-0.235-0.171-0.32l0 0c-0.028-0.028-0.059-0.054-0.093-0.076l-0.002-0.001c-0.064-0.043-0.14-0.076-0.221-0.092l-0.004-0.001c-0.037-0.008-0.079-0.012-0.122-0.012s-0.085 0.004-0.126 0.013l0.004-0.001c-0.040 0.008-0.079 0.020-0.117 0.036s-0.074 0.035-0.108 0.058c-0.034 0.022-0.066 0.049-0.096 0.077s-0.054 0.061-0.077 0.095c-0.043 0.064-0.076 0.14-0.092 0.221l-0.001 0.004c-0.008 0.041-0.012 0.081-0.012 0.122s0.004 0.082 0.012 0.122c0.017 0.085 0.050 0.161 0.095 0.227l-0.001-0.002c0.023 0.034 0.049 0.066 0.077 0.095s0.061 0.054 0.096 0.077c0.034 0.022 0.070 0.042 0.108 0.058s0.077 0.027 0.117 0.036c0.041 0.008 0.082 0.013 0.122 0.013s0.082-0.004 0.122-0.013c0.040-0.008 0.079-0.020 0.117-0.036s0.074-0.035 0.108-0.058c0.034-0.023 0.066-0.049 0.095-0.077s0.055-0.061 0.078-0.095c0.043-0.064 0.076-0.14 0.092-0.221l0.001-0.004c0.008-0.041 0.012-0.081 0.012-0.122s-0.004-0.081-0.012-0.122z"></path>
<path d="M23.191 5.143c-2.153-0.405-4.604-0.619-7.088-0.619-3.437 0-6.76 0.408-9.356 1.149-0.332 0.095-0.524 0.441-0.429 0.772 0.078 0.275 0.329 0.454 0.601 0.454 0.057 0 0.114-0.008 0.172-0.024 2.488-0.71 5.689-1.101 9.013-1.101 2.407 0 4.778 0.207 6.857 0.598 0.339 0.064 0.666-0.159 0.73-0.499s-0.159-0.666-0.499-0.73z"></path>
<path d="M7.531 15.676c-0.008-0.040-0.020-0.079-0.036-0.117s-0.035-0.074-0.058-0.107c-0.024-0.036-0.050-0.067-0.078-0.095l-0-0c-0.029-0.029-0.061-0.055-0.095-0.078s-0.070-0.041-0.108-0.057c-0.033-0.014-0.072-0.027-0.113-0.035l-0.004-0.001c-0.037-0.008-0.079-0.012-0.122-0.012s-0.085 0.004-0.126 0.013l0.004-0.001c-0.040 0.008-0.079 0.020-0.117 0.036s-0.074 0.034-0.108 0.057c-0.034 0.023-0.066 0.049-0.095 0.078s-0.055 0.061-0.077 0.095c-0.022 0.034-0.042 0.070-0.058 0.107s-0.027 0.078-0.036 0.117-0.013 0.081-0.013 0.122c0 0.086 0.018 0.168 0.050 0.243l-0.002-0.004c0.016 0.038 0.035 0.074 0.058 0.108s0.049 0.066 0.077 0.095c0.029 0.029 0.061 0.055 0.095 0.078s0.070 0.042 0.108 0.058c0.037 0.016 0.077 0.028 0.117 0.036s0.081 0.012 0.122 0.012c0.041 0 0.082-0.004 0.122-0.012 0.045-0.009 0.084-0.021 0.121-0.037l-0.004 0.002c0.041-0.017 0.077-0.036 0.11-0.059l-0.002 0.001c0.036-0.024 0.067-0.049 0.095-0.078v0c0.057-0.057 0.103-0.124 0.134-0.199l0.002-0.004c0.030-0.070 0.047-0.151 0.047-0.237 0-0.001 0-0.001 0-0.002v0c0-0.041-0.004-0.082-0.012-0.122z"></path>
</symbol>
<symbol id="icon-medicines" viewBox="0 0 32 32">
<path d="M31.817 8.479l-8.296-8.296c-0.244-0.244-0.64-0.244-0.884 0l-2.209 2.209c-0.113 0.113-0.183 0.269-0.183 0.442s0.070 0.329 0.183 0.442l2.625 2.625-2.485 2.485-3.825-3.825c-0.244-0.244-0.64-0.244-0.884 0l-2.538 2.538c-0.113 0.113-0.183 0.269-0.183 0.442s0.070 0.329 0.183 0.442l0.806 0.806-10.359 10.359c-0.952 0.952-0.952 2.501 0 3.453l0.795 0.795-1.458 1.458c-0.113 0.113-0.183 0.269-0.183 0.442s0.070 0.329 0.183 0.442l1.136 1.136-4.058 4.058c-0.244 0.244-0.244 0.64 0 0.884 0.122 0.122 0.282 0.183 0.442 0.183s0.32-0.061 0.442-0.183l4.059-4.059 1.136 1.136c0.113 0.113 0.269 0.183 0.442 0.183s0.329-0.070 0.442-0.183l1.458-1.458 0.795 0.795c0.461 0.461 1.074 0.715 1.726 0.715s1.265-0.254 1.726-0.715l10.359-10.359 0.806 0.806c0.113 0.113 0.269 0.183 0.441 0.183 0 0 0.001 0 0.001 0h-0c0.16 0 0.32-0.061 0.442-0.183l2.538-2.538c0.113-0.113 0.183-0.269 0.183-0.442s-0.070-0.329-0.183-0.442l-3.825-3.825 2.485-2.485 2.625 2.624c0.113 0.113 0.269 0.183 0.441 0.183 0 0 0.001 0 0.001 0h-0c0.16 0 0.32-0.061 0.442-0.183l2.209-2.209c0.244-0.244 0.244-0.64 0-0.884zM13.193 11.491l2.892 2.892c0.113 0.113 0.269 0.183 0.441 0.183 0 0 0.001 0 0.001 0h-0c0.16 0 0.32-0.061 0.442-0.183 0.244-0.244 0.244-0.64 0-0.884l-2.892-2.892 0.935-0.935 5.381 5.381-2.858 2.858-5.381-5.381 1.040-1.040zM6.704 27.569l-2.273-2.273 1.016-1.016 2.273 2.273-1.016 1.016zM11.968 27.348c-0.464 0.465-1.22 0.465-1.685 0l-5.631-5.631c-0.465-0.465-0.465-1.221 0-1.685l0.89-0.89 1.539 1.539c0.122 0.122 0.282 0.183 0.442 0.183s0.32-0.061 0.442-0.183c0.244-0.244 0.244-0.64 0-0.884l-1.539-1.539 1.029-1.029 2.892 2.892c0.122 0.122 0.282 0.183 0.442 0.183s0.32-0.061 0.442-0.183c0.244-0.244 0.244-0.64 0-0.884l-2.892-2.892 1.029-1.029 1.539 1.539c0.122 0.122 0.282 0.183 0.442 0.183s0.32-0.061 0.442-0.183c0.244-0.244 0.244-0.64 0-0.884l-1.539-1.539 1.017-1.017 5.381 5.381-4.064 4.064c-0.244 0.244-0.244 0.64 0 0.884 0.122 0.122 0.282 0.183 0.442 0.183s0.32-0.061 0.442-0.183l4.064-4.064 1.052 1.052-6.616 6.617zM19.469 19.847l-1.052-1.052 2.858-2.858 1.052 1.052-2.858 2.858zM26.113 15.699l-1.654 1.654-9.812-9.812 1.654-1.654 9.812 9.812zM22.731 10.549l-1.279-1.279 2.485-2.485 1.279 1.279-2.485 2.485zM29.166 10.247l-7.412-7.412 1.325-1.325 7.412 7.412-1.325 1.325z"></path>
<path d="M11.902 24.918c-0.008-0.040-0.020-0.079-0.036-0.117-0.017-0.041-0.036-0.077-0.059-0.11l0.001 0.002c-0.023-0.034-0.049-0.066-0.078-0.095s-0.061-0.055-0.095-0.078c-0.031-0.021-0.067-0.040-0.104-0.056l-0.004-0.002c-0.037-0.016-0.077-0.027-0.117-0.036-0.037-0.008-0.079-0.012-0.122-0.012s-0.085 0.004-0.126 0.013l0.004-0.001c-0.040 0.008-0.079 0.020-0.117 0.036s-0.074 0.035-0.108 0.058c-0.034 0.023-0.066 0.049-0.095 0.078s-0.055 0.061-0.078 0.095c-0.023 0.034-0.042 0.070-0.057 0.108s-0.028 0.077-0.036 0.117c-0.008 0.040-0.012 0.081-0.012 0.122s0.004 0.082 0.012 0.122c0.008 0.039 0.020 0.079 0.036 0.117s0.035 0.074 0.057 0.108c0.023 0.034 0.049 0.066 0.078 0.095 0.057 0.057 0.124 0.103 0.199 0.134l0.004 0.002c0.070 0.030 0.151 0.047 0.237 0.047 0.001 0 0.001 0 0.002 0h-0c0.001 0 0.001 0 0.002 0 0.086 0 0.167-0.017 0.241-0.049l-0.004 0.002c0.079-0.033 0.147-0.079 0.203-0.136l0-0c0.029-0.029 0.055-0.061 0.078-0.095s0.042-0.070 0.057-0.108c0.016-0.038 0.028-0.078 0.036-0.117 0.008-0.041 0.012-0.082 0.012-0.122s-0.004-0.082-0.012-0.122z"></path>
</symbol>
<symbol id="icon-pet-food" viewBox="0 0 32 32">
<path d="M28.212 13.599l-3.069-8.4v-4.437c0-0.421-0.341-0.762-0.762-0.762h-16.762c-0.421 0-0.762 0.341-0.762 0.762v4.437l-3.069 8.4c-0.348 0.922-0.55 1.988-0.55 3.101 0 0.002 0 0.003 0 0.005v-0 12.669c0 1.448 1.178 2.626 2.626 2.626h20.272c1.448 0 2.626-1.178 2.626-2.626v-12.669c0-1.063-0.185-2.108-0.55-3.106zM8.381 1.524h15.238v3.048h-15.238v-3.048zM27.238 26.737h-10.754c-0.421 0-0.762 0.341-0.762 0.762s0.341 0.762 0.762 0.762h10.754v1.113c0 0.608-0.494 1.102-1.102 1.102h-20.272c-0.608 0-1.102-0.494-1.102-1.102v-12.669c0-0.001 0-0.003 0-0.004 0-0.926 0.168-1.812 0.474-2.631l-0.017 0.052 2.933-8.027h15.696l2.933 8.027c0.29 0.767 0.457 1.654 0.457 2.579 0 0.001 0 0.003 0 0.004v-0 10.032z"></path>
<path d="M18.996 18.029c-0.249-1.561-1.605-2.759-3.235-2.759s-2.987 1.197-3.235 2.759c-1.289 0.53-2.132 1.851-2.024 3.286 0.121 1.599 1.419 2.894 3.018 3.013 0.618 0.046 1.231-0.081 1.774-0.367 0.297-0.156 0.637-0.156 0.934 0 0.442 0.237 0.966 0.377 1.524 0.377 0.001 0 0.003 0 0.004 0h-0c0.082 0 0.164-0.003 0.247-0.009 1.599-0.119 2.897-1.414 3.018-3.013 0.109-1.435-0.734-2.756-2.023-3.286zM19.5 21.2c-0.065 0.854-0.758 1.545-1.612 1.609-0.332 0.025-0.661-0.043-0.95-0.196-0.341-0.184-0.747-0.292-1.178-0.292s-0.836 0.108-1.191 0.298l0.014-0.007c-0.289 0.153-0.617 0.221-0.95 0.196-0.854-0.063-1.547-0.755-1.612-1.609-0.067-0.876 0.528-1.673 1.383-1.853 0.348-0.075 0.605-0.38 0.605-0.746 0-0.005-0-0.011-0-0.016v0.001l-0.001-0.039c0-0.966 0.786-1.752 1.752-1.752s1.752 0.786 1.752 1.75l-0.001 0.041c-0 0.005-0 0.010-0 0.016 0 0.365 0.257 0.67 0.6 0.745l0.005 0.001c0.855 0.18 1.45 0.977 1.384 1.853z"></path>
<path d="M15.76 13.747c1.365 0 2.476-1.111 2.476-2.476s-1.111-2.476-2.476-2.476-2.476 1.111-2.476 2.476 1.111 2.476 2.476 2.476zM15.76 10.318c0.525 0 0.952 0.427 0.952 0.952s-0.427 0.952-0.952 0.952c-0.525 0-0.952-0.427-0.952-0.952s0.427-0.952 0.952-0.952z"></path>
<path d="M12.903 14.217c0-1.365-1.111-2.476-2.476-2.476s-2.476 1.111-2.476 2.476 1.111 2.476 2.476 2.476 2.476-1.111 2.476-2.476zM10.427 15.169c-0.525 0-0.952-0.427-0.952-0.952s0.427-0.952 0.952-0.952 0.952 0.427 0.952 0.952-0.427 0.952-0.952 0.952z"></path>
<path d="M21.094 11.74c-1.365 0-2.476 1.111-2.476 2.476s1.111 2.476 2.476 2.476c1.365 0 2.476-1.111 2.476-2.476s-1.111-2.476-2.476-2.476zM21.094 15.169c-0.525 0-0.952-0.427-0.952-0.952s0.427-0.952 0.952-0.952c0.525 0 0.952 0.427 0.952 0.952s-0.427 0.952-0.952 0.952z"></path>
<path d="M13.17 26.737h-0.185c-0.421 0-0.762 0.341-0.762 0.762s0.341 0.762 0.762 0.762h0.185c0.421 0 0.762-0.341 0.762-0.762s-0.341-0.762-0.762-0.762z"></path>
</symbol>
<symbol id="icon-shampoo" viewBox="0 0 32 32">
<path d="M20.174 9.163v-2.903c0-0.384-0.311-0.696-0.696-0.696h-0.522v-4.87c0-0.384-0.311-0.696-0.696-0.696h-4.522c-0.384 0-0.696 0.311-0.696 0.696v4.87h-0.522c-0.384 0-0.696 0.311-0.696 0.696v2.903c-2.443 0.974-4.174 3.364-4.174 6.15v15.991c0 0.384 0.311 0.696 0.696 0.696h15.304c0.384 0 0.696-0.311 0.696-0.696v-15.991c-0-2.786-1.731-5.176-4.174-6.15zM14.435 1.391h3.13v4.174h-3.13v-4.174zM13.217 6.957h5.565v1.739h-5.565v-1.739zM22.956 30.609h-13.913v-15.296c0-2.882 2.344-5.226 5.226-5.226h3.461c2.882 0 5.226 2.344 5.226 5.226v15.296z"></path>
<path d="M20.522 14.609h-9.043c-0.384 0-0.696 0.311-0.696 0.696v12.87c0 0.384 0.311 0.696 0.696 0.696h9.043c0.384 0 0.696-0.311 0.696-0.696v-4.372c0-0.384-0.311-0.696-0.696-0.696s-0.696 0.311-0.696 0.696v3.676h-7.652v-11.478h7.652v2.202c0 0.384 0.311 0.696 0.696 0.696s0.696-0.311 0.696-0.696v-2.898c0-0.384-0.311-0.696-0.696-0.696z"></path>
<path d="M20.522 20.301c-0.384 0-0.696 0.311-0.696 0.696v0.070c0 0.384 0.311 0.696 0.696 0.696s0.696-0.311 0.696-0.696v-0.070c0-0.384-0.311-0.696-0.696-0.696z"></path>
<path d="M15.3 21.947c-1.151 0-2.087 0.936-2.087 2.087s0.936 2.087 2.087 2.087 2.087-0.936 2.087-2.087c0-1.151-0.936-2.087-2.087-2.087zM15.3 24.73c-0.384 0-0.696-0.312-0.696-0.696s0.312-0.696 0.696-0.696c0.384 0 0.696 0.312 0.696 0.696s-0.312 0.696-0.696 0.696z"></path>
<path d="M18.955 19.192c0-1.151-0.936-2.087-2.087-2.087s-2.087 0.936-2.087 2.087 0.936 2.087 2.087 2.087c1.151 0 2.087-0.936 2.087-2.087zM16.868 19.887c-0.384 0-0.696-0.312-0.696-0.696s0.312-0.696 0.696-0.696c0.384 0 0.696 0.312 0.696 0.696s-0.312 0.696-0.696 0.696z"></path>
</symbol>
<symbol id="icon-sleeping-area" viewBox="0 0 32 32">
<path d="M30.754 10.649l-14.385-10.528c-0.102-0.075-0.23-0.121-0.369-0.121s-0.267 0.045-0.371 0.122l0.002-0.001-14.385 10.528c-0.278 0.204-0.339 0.595-0.135 0.873l1.88 2.569c0.115 0.156 0.298 0.256 0.504 0.256 0.139 0 0.267-0.045 0.371-0.122l-0.002 0.001 0.567-0.415v17.564c0 0.345 0.28 0.625 0.625 0.625h21.92c0.345 0 0.625-0.28 0.625-0.625v-17.54l0.534 0.391c0.102 0.075 0.23 0.121 0.369 0.121 0.206 0 0.389-0.1 0.503-0.254l0.001-0.002 1.88-2.569c0.204-0.279 0.143-0.67-0.135-0.873zM26.351 28.312h-14.787c-0.345 0-0.625 0.28-0.625 0.625s0.28 0.625 0.625 0.625h14.787v1.188h-20.67v-17.361h14.636c0.345 0 0.625-0.28 0.625-0.625s-0.28-0.625-0.625-0.625h-13.602l9.284-6.795 10.351 7.576v15.392zM28.37 12.849l-12.001-8.783c-0.102-0.075-0.23-0.121-0.369-0.121-0 0-0 0-0 0v0c-0 0-0 0-0 0-0.139 0-0.267 0.045-0.371 0.122l0.002-0.001-12.001 8.783-1.142-1.56 13.512-9.889 13.512 9.889-1.142 1.56z"></path>
<path d="M23.183 12.643c-0.008-0.040-0.021-0.079-0.036-0.118s-0.035-0.074-0.058-0.107c-0.024-0.036-0.049-0.067-0.078-0.095v0c-0.113-0.113-0.269-0.183-0.442-0.183h-0c-0.164 0-0.326 0.067-0.442 0.183-0.029 0.029-0.055 0.061-0.078 0.095s-0.042 0.070-0.058 0.107c-0.016 0.038-0.028 0.078-0.036 0.118s-0.012 0.081-0.012 0.122c0 0.041 0.004 0.082 0.012 0.122s0.020 0.079 0.036 0.117c0.016 0.038 0.035 0.074 0.058 0.108s0.049 0.066 0.078 0.095c0.029 0.029 0.061 0.055 0.095 0.078s0.070 0.042 0.108 0.057c0.038 0.016 0.077 0.028 0.117 0.036s0.081 0.012 0.122 0.012c0.041 0 0.082-0.004 0.122-0.012 0.044-0.009 0.084-0.021 0.121-0.037l-0.004 0.001c0.038-0.016 0.074-0.035 0.108-0.057s0.066-0.049 0.095-0.078c0.029-0.029 0.055-0.061 0.078-0.095s0.042-0.070 0.058-0.108c0.016-0.038 0.028-0.078 0.036-0.117s0.012-0.081 0.012-0.122c0-0.041-0.004-0.082-0.012-0.122z"></path>
<path d="M9.926 28.815c-0.009-0.045-0.021-0.084-0.037-0.121l0.002 0.004c-0.016-0.038-0.035-0.074-0.058-0.108-0.024-0.036-0.049-0.067-0.077-0.095l0 0c-0.029-0.029-0.061-0.054-0.095-0.078-0.064-0.043-0.14-0.076-0.221-0.092l-0.004-0.001c-0.037-0.008-0.079-0.012-0.122-0.012s-0.085 0.004-0.126 0.013l0.004-0.001c-0.039 0.008-0.079 0.020-0.117 0.036s-0.074 0.035-0.107 0.058c-0.034 0.023-0.066 0.049-0.095 0.078s-0.055 0.061-0.078 0.095c-0.043 0.064-0.076 0.14-0.092 0.221l-0.001 0.004c-0.008 0.041-0.012 0.081-0.012 0.122 0 0.001 0 0.001 0 0.002 0 0.086 0.017 0.167 0.049 0.241l-0.002-0.004c0.016 0.038 0.035 0.074 0.057 0.108s0.049 0.066 0.078 0.095c0.029 0.029 0.061 0.055 0.095 0.078s0.070 0.042 0.107 0.058c0.038 0.016 0.078 0.027 0.117 0.036 0.041 0.008 0.082 0.012 0.123 0.012 0.129-0.001 0.249-0.040 0.349-0.107l-0.002 0.001c0.036-0.024 0.067-0.049 0.095-0.077l0-0c0.029-0.029 0.055-0.061 0.077-0.095 0.066-0.098 0.105-0.218 0.106-0.347v-0c0-0.041-0.004-0.081-0.012-0.122z"></path>
<path d="M23.763 16.306c0-0.53-0.208-1.027-0.585-1.401-0.374-0.369-0.885-0.576-1.406-0.572-0.174 0.002-0.341 0.026-0.501 0.069l0.014-0.003c-1.314 0.34-2.439 0.74-3.517 1.227l0.136-0.055c-0.57-0.141-1.225-0.222-1.899-0.222-0.002 0-0.003 0-0.005 0h0c-0.361 0-0.725 0.024-1.083 0.070-0.326 0.043-0.604 0.096-0.877 0.163l0.056-0.012c-0.942-0.431-2.066-0.832-3.23-1.138l-0.15-0.034c0-0-0.005-0.002-0.011-0.003l-0.006-0.001c-0.615-0.157-1.249-0.016-1.74 0.387s-0.753 0.997-0.719 1.631c0.039 0.732 0.108 1.402 0.206 2.061l-0.014-0.118c0.103 0.71 0.215 1.294 0.35 1.868l-0.029-0.147c-0.18 0.444-0.32 0.962-0.397 1.501l-0.004 0.036c-0.029 0.199-0.046 0.429-0.046 0.663v0c0 2.798 2.44 5.074 5.439 5.074h4.514c1.644 0 3.182-0.684 4.219-1.876 0.951-1.092 1.368-2.464 1.173-3.862-0.048-0.344-0.113-0.644-0.196-0.936l0.012 0.048c-0.075-0.269-0.149-0.485-0.233-0.695l0.016 0.047c0.256-1.069 0.439-2.323 0.51-3.607l0.002-0.056c0.002-0.037 0.003-0.073 0.003-0.109zM22.512 16.345l-0 0.002c-0.072 1.328-0.26 2.573-0.555 3.776l0.029-0.139c-0.011 0.044-0.017 0.094-0.017 0.145 0 0.088 0.018 0.172 0.051 0.248l-0.002-0.004c0.082 0.185 0.164 0.413 0.232 0.648l0.010 0.040c0.058 0.199 0.111 0.444 0.147 0.695l0.004 0.030c0.144 1.035-0.168 2.054-0.878 2.869-0.8 0.919-1.994 1.446-3.277 1.446h-4.514c-2.31 0-4.189-1.715-4.189-3.824 0-0.162 0.012-0.327 0.034-0.492 0.075-0.527 0.212-1.003 0.406-1.449l-0.014 0.036c0.032-0.072 0.050-0.156 0.050-0.245 0-0.051-0.006-0.101-0.018-0.149l0.001 0.004c-0.118-0.461-0.239-1.073-0.332-1.695l-0.014-0.112c-0.079-0.51-0.143-1.14-0.178-1.778l-0.002-0.052c-0.012-0.233 0.084-0.451 0.264-0.598 0.132-0.108 0.292-0.165 0.457-0.165 0.056 0 0.113 0.007 0.169 0.020l0.012 0.003c1.31 0.338 2.437 0.745 3.514 1.244l-0.126-0.052c0.076 0.036 0.165 0.056 0.259 0.056 0.057 0 0.113-0.008 0.165-0.022l-0.004 0.001c0.242-0.068 0.54-0.129 0.845-0.171l0.036-0.004c0.304-0.040 0.613-0.060 0.92-0.060 0.612 0 1.218 0.079 1.801 0.234 0.14 0.037 0.288 0.025 0.42-0.035 0.954-0.448 2.086-0.857 3.259-1.164l0.142-0.031c0.049-0.012 0.105-0.019 0.163-0.020h0.009c0.187 0 0.371 0.077 0.507 0.211 0.132 0.13 0.214 0.31 0.214 0.51 0 0.001 0 0.001 0 0.002v-0c0 0.013-0 0.026-0.001 0.039z"></path>
<path d="M17.172 23.235c-0.302 0-0.547-0.245-0.547-0.547 0-0.345-0.28-0.625-0.625-0.625s-0.625 0.28-0.625 0.625v0.023c0 0.302-0.245 0.547-0.547 0.547-0.345 0-0.625 0.28-0.625 0.625s0.28 0.625 0.625 0.625c0.454 0 0.869-0.169 1.185-0.448 0.31 0.264 0.715 0.425 1.157 0.425 0.001 0 0.001 0 0.002 0h-0c0.345 0 0.625-0.28 0.625-0.625s-0.28-0.625-0.625-0.625z"></path>
<path d="M13.815 20.355l-0.928-0.425c-0.076-0.036-0.166-0.057-0.26-0.057s-0.184 0.021-0.264 0.058l0.004-0.002-0.928 0.425c-0.314 0.144-0.452 0.515-0.308 0.828 0.101 0.217 0.317 0.365 0.568 0.365 0.094 0 0.184-0.021 0.264-0.058l-0.004 0.002 0.668-0.306 0.668 0.306c0.314 0.144 0.685 0.006 0.829-0.308s0.006-0.685-0.308-0.828z"></path>
<path d="M20.562 20.355l-0.928-0.425c-0.076-0.036-0.166-0.057-0.26-0.057s-0.184 0.021-0.264 0.058l0.004-0.002-0.928 0.425c-0.314 0.144-0.452 0.515-0.308 0.829s0.515 0.452 0.828 0.308l0.668-0.306 0.668 0.306c0.076 0.036 0.166 0.057 0.26 0.057v0c0.237 0 0.463-0.135 0.569-0.365 0.144-0.314 0.006-0.685-0.308-0.828z"></path>
</symbol>
<symbol id="icon-toys" viewBox="0 0 32 32">
<path d="M27.314 4.686c-3.022-3.022-7.040-4.686-11.314-4.686s-8.292 1.664-11.314 4.686c-3.022 3.022-4.686 7.040-4.686 11.314s1.664 8.292 4.686 11.314c3.022 3.022 7.040 4.686 11.314 4.686s8.292-1.664 11.314-4.686c3.022-3.022 4.686-7.040 4.686-11.314s-1.664-8.292-4.686-11.314zM5.67 26.33c-2.521-2.521-4.006-5.802-4.244-9.325l0 0c0.382 0.013 0.772 0.049 1.167 0.108 2.828 0.42 5.675 1.94 8.014 4.28s3.86 5.186 4.28 8.015c0.053 0.335 0.092 0.735 0.107 1.142l0.001 0.019c-3.399-0.232-6.732-1.645-9.325-4.237zM16.387 30.596c-0.015-0.506-0.059-0.987-0.132-1.459l0.008 0.065c-0.464-3.121-2.123-6.244-4.672-8.794s-5.672-4.209-8.794-4.672c-0.409-0.065-0.893-0.109-1.384-0.123l-0.017-0c0.012-0.467 0.046-0.931 0.101-1.389 0.496 0.016 1 0.062 1.504 0.137 3.414 0.507 6.814 2.306 9.573 5.065s4.558 6.159 5.065 9.573c0.068 0.433 0.117 0.949 0.136 1.473l0.001 0.023c-0.402 0.052-0.883 0.089-1.369 0.102l-0.020 0zM26.33 26.33c-2.041 2.041-4.541 3.35-7.17 3.929-0.026-0.546-0.078-1.050-0.154-1.547l0.010 0.082c-0.551-3.708-2.489-7.384-5.457-10.353s-6.645-4.906-10.353-5.457c-0.417-0.066-0.923-0.118-1.437-0.143l-0.034-0.001-0.004 0.003c0.591-2.697 1.939-5.174 3.938-7.173 1.952-1.952 4.324-3.235 6.829-3.849 0.019 0.624 0.074 1.217 0.164 1.799l-0.010-0.081c0.551 3.708 2.489 7.384 5.457 10.353s6.645 4.906 10.353 5.457c0.502 0.079 1.097 0.135 1.701 0.153l0.022 0.001 0.006-0.010c-0.627 2.567-1.944 4.922-3.861 6.839zM30.457 18.115c-0.587-0.006-1.187-0.054-1.791-0.143-3.415-0.507-6.814-2.306-9.573-5.065s-4.558-6.159-5.065-9.573c-0.089-0.601-0.137-1.199-0.143-1.783 0.392-0.061 0.871-0.109 1.357-0.133l0.035-0.001c-0.001 0.558 0.041 1.132 0.127 1.713 0.464 3.121 2.123 6.245 4.672 8.794 0.272 0.272 0.712 0.272 0.984 0s0.272-0.712 0-0.984c-2.34-2.34-3.86-5.186-4.28-8.014-0.076-0.515-0.114-1.021-0.113-1.511 3.515 0.159 6.984 1.578 9.662 4.256 2.601 2.601 4.1 6.011 4.263 9.662-0.494 0.001-1.001-0.036-1.518-0.113-0.38-0.056-0.734 0.206-0.79 0.586s0.206 0.734 0.586 0.79c0.575 0.085 1.142 0.128 1.694 0.128 0.009 0 0.018-0 0.027-0-0.026 0.521-0.074 1.001-0.144 1.473l0.010-0.081z"></path>
<path d="M24.614 13.747c-0.192 0-0.366 0.078-0.492 0.204v0c-0.126 0.126-0.203 0.3-0.204 0.492v0c0 0.183 0.074 0.362 0.204 0.492s0.309 0.204 0.492 0.204 0.362-0.074 0.492-0.204c0.125-0.126 0.203-0.3 0.204-0.492v-0c0-0.183-0.074-0.362-0.204-0.492-0.126-0.126-0.3-0.204-0.492-0.204h-0z"></path>
</symbol>
<symbol id="icon-transportation" viewBox="0 0 32 32">
<path d="M29.361 6.779h-3.746v-0.108c0-1.938-1.576-3.514-3.514-3.514s-3.514 1.576-3.514 3.514v0.108h-4.399c-1.448 0-2.627 1.178-2.627 2.627v2.968h-3.939c-0.94 0-1.775 0.563-2.128 1.434-0.005 0.013-0.010 0.026-0.014 0.039l-2.273 6.884c-0.021 0.012-0.047 0.027-0.080 0.043l-0 0c-0.13 0.065-0.373 0.164-0.791 0.266-1.344 0.334-2.325 1.53-2.325 2.955 0 0.002 0 0.004 0 0.006v-0 3.252c0 1.089 0.886 1.975 1.975 1.975l2.786 0c0.294 1.576 1.679 2.772 3.338 2.772s3.044-1.197 3.338-2.772l9.826 0c0.294 1.575 1.679 2.772 3.338 2.772s3.044-1.197 3.338-2.772l1.769 0c1.354 0 2.264-0.91 2.264-2.264v-16.254c0-3.547-1.837-3.93-2.627-3.93zM19.838 6.672c0-1.248 1.015-2.264 2.264-2.264s2.264 1.016 2.264 2.264v0.108h-4.527v-0.108zM6.66 14.26c0.162-0.377 0.531-0.636 0.96-0.636 0.001 0 0.002 0 0.003 0h3.939v7.084h-7.030l2.129-6.447zM8.112 30.75c-1.184 0-2.147-0.963-2.147-2.147 0-0.015 0.001-0.029 0.001-0.044 0-0.022 0.001-0.045 0.002-0.067 0-0.003 0.001-0.007 0.001-0.010 0.063-1.128 1-2.026 2.143-2.026 1.034 0 1.9 0.735 2.102 1.711l0.001 0.004c0.007 0.033 0.013 0.066 0.018 0.1l0.001 0.006c0.004 0.024 0.007 0.049 0.009 0.074 0.001 0.011 0.003 0.022 0.004 0.034 0.002 0.019 0.003 0.039 0.004 0.058 0.001 0.017 0.003 0.034 0.004 0.051s0.001 0.035 0.001 0.053c0.001 0.019 0.001 0.038 0.001 0.058 0 1.184-0.963 2.147-2.147 2.147zM24.615 30.75c-1.184 0-2.147-0.963-2.147-2.147 0-0.028 0.001-0.056 0.002-0.083 0-0.009 0-0.018 0.001-0.027 0.001-0.021 0.003-0.041 0.005-0.061 0.001-0.016 0.002-0.032 0.004-0.048 0.001-0.007 0.002-0.013 0.003-0.020 0.007-0.065 0.017-0.13 0.030-0.193 0-0.002 0.001-0.004 0.001-0.006 0.203-0.975 1.068-1.709 2.102-1.709 0.296 0 0.578 0.060 0.835 0.169 0.77 0.326 1.312 1.090 1.312 1.978 0 1.184-0.963 2.147-2.147 2.147zM29.723 27.978l-1.768-0c-0.002-0.011-0.005-0.022-0.007-0.033-0.019-0.098-0.037-0.172-0.057-0.245l0.006 0.026c-0.014-0.056-0.024-0.087-0.033-0.119l0.006 0.024c-0.006-0.020-0.012-0.039-0.018-0.058-0.017-0.056-0.029-0.088-0.040-0.12l0.007 0.023c-0.006-0.017-0.012-0.035-0.018-0.052-0.022-0.059-0.036-0.096-0.052-0.132l0.008 0.021c-0.005-0.012-0.009-0.023-0.014-0.035-0.029-0.070-0.051-0.118-0.074-0.164l0.009 0.020c-0.003-0.006-0.006-0.012-0.009-0.017-0.029-0.060-0.050-0.1-0.071-0.139l0.009 0.018c-0.008-0.015-0.016-0.029-0.024-0.044-0.026-0.047-0.043-0.077-0.061-0.107l0.008 0.015c-0.010-0.016-0.020-0.033-0.030-0.049-0.035-0.057-0.064-0.1-0.093-0.142l0.006 0.010c-0.037-0.053-0.067-0.095-0.098-0.135l0.006 0.008c-0.025-0.033-0.045-0.058-0.065-0.083l0.005 0.006c-0.012-0.015-0.024-0.030-0.037-0.045-0.026-0.031-0.048-0.057-0.071-0.082l0.003 0.003c-0.011-0.013-0.022-0.026-0.034-0.038-0.030-0.033-0.059-0.063-0.088-0.092l0 0c-0.006-0.006-0.013-0.013-0.019-0.020-0.036-0.036-0.073-0.071-0.11-0.105l-0.003-0.002c-0.008-0.008-0.017-0.015-0.025-0.022-0.030-0.027-0.061-0.054-0.092-0.079-0.014-0.011-0.028-0.022-0.041-0.033-0.019-0.016-0.045-0.036-0.071-0.056l-0.009-0.006c-0.016-0.012-0.032-0.024-0.048-0.035-0.057-0.043-0.126-0.089-0.196-0.133l-0.014-0.008c-0.017-0.011-0.035-0.022-0.053-0.032-0.028-0.017-0.056-0.032-0.084-0.048-0.017-0.010-0.035-0.020-0.052-0.029-0.031-0.016-0.062-0.032-0.093-0.048-0.015-0.008-0.031-0.016-0.046-0.023-0.020-0.011-0.061-0.030-0.102-0.048l-0.021-0.008c-0.006-0.003-0.013-0.006-0.019-0.009-0.026-0.012-0.074-0.032-0.123-0.050l-0.023-0.008c-0.014-0.005-0.028-0.010-0.043-0.015-0.035-0.012-0.071-0.025-0.107-0.036-0.019-0.006-0.038-0.011-0.057-0.017-0.032-0.009-0.064-0.019-0.096-0.027-0.021-0.006-0.041-0.011-0.062-0.016-0.030-0.008-0.083-0.021-0.137-0.031l-0.021-0.004c-0.011-0.003-0.043-0.009-0.075-0.014l-0.020-0.003c-0.022-0.004-0.043-0.007-0.065-0.010-0.015-0.003-0.049-0.007-0.083-0.011l-0.016-0.002c-0.021-0.002-0.042-0.005-0.063-0.007-0.024-0.003-0.062-0.006-0.1-0.008l-0.010-0c-0.018-0.001-0.036-0.003-0.054-0.004-0.049-0.003-0.107-0.004-0.165-0.004h-0c-0.055 0-0.111 0.002-0.165 0.004-0.018 0.001-0.036 0.003-0.054 0.004-0.037 0.002-0.073 0.005-0.11 0.008-0.021 0.002-0.042 0.005-0.063 0.007-0.033 0.004-0.066 0.008-0.099 0.013-0.022 0.003-0.044 0.007-0.065 0.010-0.076 0.012-0.13 0.023-0.183 0.035l0.024-0.004c-0.055 0.011-0.086 0.019-0.117 0.027l0.024-0.005c-0.021 0.005-0.042 0.010-0.063 0.016-0.032 0.008-0.063 0.018-0.095 0.027-0.019 0.006-0.039 0.011-0.058 0.017-0.058 0.018-0.093 0.030-0.128 0.043l0.023-0.007c-0.015 0.005-0.030 0.010-0.045 0.016-0.049 0.018-0.098 0.037-0.146 0.058-0.008 0.003-0.016 0.007-0.024 0.011-0.040 0.017-0.080 0.035-0.119 0.054-0.017 0.008-0.033 0.016-0.049 0.025-0.030 0.015-0.060 0.030-0.090 0.046-0.018 0.010-0.036 0.020-0.055 0.030-0.045 0.024-0.071 0.040-0.098 0.056l0.016-0.009c-0.078 0.047-0.139 0.086-0.198 0.128l0.012-0.008c-0.035 0.024-0.060 0.042-0.084 0.060l0.009-0.006c-0.017 0.012-0.034 0.025-0.051 0.038-0.026 0.020-0.051 0.040-0.076 0.060-0.015 0.012-0.030 0.024-0.045 0.037-0.029 0.024-0.057 0.049-0.085 0.074-0.010 0.009-0.021 0.018-0.031 0.028-0.040 0.036-0.076 0.071-0.111 0.106l0-0c-0.009 0.009-0.018 0.019-0.027 0.028-0.027 0.027-0.054 0.055-0.080 0.084-0.013 0.014-0.026 0.029-0.038 0.043-0.021 0.024-0.043 0.048-0.064 0.073-0.014 0.016-0.027 0.033-0.040 0.049-0.019 0.024-0.038 0.048-0.057 0.072-0.038 0.049-0.080 0.108-0.12 0.168l-0.008 0.013c-0.017 0.026-0.034 0.052-0.050 0.078-0.011 0.018-0.023 0.036-0.033 0.054-0.017 0.028-0.033 0.057-0.049 0.085-0.009 0.017-0.019 0.033-0.028 0.050-0.019 0.036-0.038 0.072-0.055 0.108-0.005 0.010-0.011 0.020-0.015 0.030-0.014 0.026-0.035 0.073-0.056 0.12l-0.009 0.022c-0.006 0.015-0.012 0.029-0.018 0.044-0.014 0.034-0.027 0.067-0.040 0.102-0.007 0.019-0.014 0.038-0.020 0.058-0.003 0.006-0.014 0.036-0.024 0.067l-0.007 0.025c-0.007 0.021-0.013 0.042-0.019 0.063-0.009 0.028-0.024 0.080-0.037 0.132l-0.005 0.023c-0.007 0.030-0.014 0.060-0.021 0.091-0.005 0.022-0.010 0.044-0.014 0.066-0.002 0.011-0.005 0.021-0.007 0.031l-9.825-0c-0.002-0.011-0.005-0.021-0.007-0.032-0.004-0.021-0.009-0.043-0.013-0.064-0.023-0.107-0.045-0.19-0.070-0.272l0.006 0.023c-0.006-0.020-0.012-0.041-0.019-0.061-0.017-0.055-0.028-0.086-0.039-0.117l0.007 0.023c-0.007-0.019-0.013-0.037-0.020-0.056-0.021-0.056-0.034-0.090-0.049-0.124l0.008 0.021c-0.006-0.014-0.011-0.029-0.017-0.043-0.029-0.069-0.050-0.116-0.073-0.162l0.009 0.020c-0.005-0.009-0.010-0.019-0.014-0.028-0.027-0.056-0.046-0.092-0.065-0.128l0.008 0.017c-0.009-0.017-0.018-0.033-0.028-0.049-0.016-0.029-0.033-0.058-0.050-0.086-0.011-0.018-0.022-0.035-0.033-0.053-0.024-0.040-0.041-0.065-0.058-0.091l0.008 0.012c-0.049-0.073-0.091-0.131-0.135-0.189l0.006 0.009c-0.019-0.024-0.038-0.048-0.057-0.072-0.013-0.016-0.026-0.033-0.040-0.049-0.025-0.029-0.045-0.053-0.066-0.077l0.003 0.004c-0.013-0.015-0.025-0.029-0.039-0.044-0.026-0.028-0.052-0.056-0.079-0.083-0.009-0.010-0.018-0.019-0.028-0.029-0.035-0.035-0.072-0.070-0.109-0.104l-0.003-0.002c-0.011-0.010-0.021-0.019-0.032-0.028-0.024-0.022-0.052-0.046-0.079-0.069l-0.005-0.004c-0.015-0.013-0.031-0.025-0.046-0.037-0.025-0.020-0.050-0.040-0.075-0.059-0.017-0.013-0.034-0.025-0.051-0.038-0.014-0.011-0.039-0.029-0.063-0.046l-0.011-0.008c-0.030-0.021-0.073-0.050-0.116-0.077l-0.015-0.009c-0.005-0.004-0.023-0.015-0.042-0.026l-0.014-0.008c-0.012-0.008-0.038-0.023-0.065-0.038l-0.016-0.008c-0.018-0.010-0.036-0.021-0.055-0.030-0.011-0.007-0.040-0.022-0.070-0.037l-0.020-0.009c-0.017-0.008-0.033-0.017-0.050-0.025-0.017-0.009-0.056-0.027-0.095-0.044l-0.023-0.009c-0.008-0.004-0.017-0.008-0.025-0.011-0.025-0.012-0.073-0.031-0.122-0.050l-0.024-0.008c-0.015-0.006-0.030-0.010-0.046-0.016-0.010-0.005-0.045-0.017-0.080-0.028l-0.024-0.007c-0.019-0.006-0.039-0.012-0.058-0.017-0.007-0.003-0.038-0.012-0.070-0.021l-0.024-0.006c-0.021-0.006-0.042-0.011-0.063-0.016-0.062-0.017-0.147-0.035-0.234-0.049l-0.019-0.003c-0.022-0.004-0.043-0.007-0.065-0.010-0.015-0.003-0.049-0.007-0.083-0.011l-0.016-0.002c-0.021-0.002-0.042-0.005-0.063-0.007-0.024-0.003-0.062-0.006-0.1-0.008l-0.010-0c-0.018-0.001-0.036-0.003-0.054-0.004-0.049-0.003-0.107-0.004-0.165-0.004h-0c-0.055 0-0.111 0.002-0.165 0.004-0.018 0.001-0.036 0.003-0.054 0.004-0.037 0.002-0.073 0.005-0.11 0.008-0.021 0.002-0.042 0.005-0.063 0.007-0.050 0.005-0.083 0.010-0.117 0.015l0.019-0.002c-0.022 0.003-0.044 0.007-0.066 0.010-0.074 0.012-0.128 0.022-0.181 0.034l0.022-0.004c-0.031 0.007-0.062 0.014-0.093 0.021-0.021 0.005-0.042 0.010-0.063 0.016-0.056 0.014-0.087 0.024-0.118 0.033l0.024-0.006c-0.020 0.006-0.039 0.011-0.059 0.018-0.034 0.011-0.068 0.023-0.102 0.035-0.016 0.006-0.032 0.011-0.047 0.016-0.049 0.018-0.097 0.037-0.145 0.057-0.010 0.004-0.019 0.009-0.029 0.013-0.038 0.017-0.076 0.034-0.114 0.052-0.018 0.008-0.035 0.017-0.052 0.026-0.048 0.023-0.077 0.038-0.105 0.053l0.018-0.009c-0.019 0.010-0.038 0.021-0.056 0.031-0.027 0.015-0.053 0.030-0.079 0.046-0.059 0.035-0.103 0.063-0.145 0.091l0.013-0.008c-0.019 0.012-0.037 0.025-0.056 0.038-0.024 0.017-0.049 0.034-0.073 0.052-0.018 0.013-0.036 0.026-0.053 0.039-0.025 0.019-0.049 0.038-0.073 0.057-0.016 0.013-0.033 0.026-0.048 0.039-0.027 0.023-0.053 0.046-0.080 0.069-0.012 0.011-0.025 0.021-0.037 0.032-0.039 0.036-0.075 0.070-0.11 0.105l0-0c-0.011 0.011-0.022 0.023-0.033 0.034-0.025 0.026-0.050 0.051-0.074 0.078-0.014 0.015-0.028 0.031-0.041 0.047-0.020 0.023-0.041 0.046-0.060 0.070-0.014 0.017-0.028 0.034-0.042 0.052-0.013 0.016-0.031 0.039-0.049 0.061l-0.006 0.008c-0.025 0.032-0.055 0.073-0.084 0.115l-0.007 0.011c-0.005 0.007-0.018 0.026-0.031 0.044l-0.008 0.012c-0.016 0.025-0.032 0.050-0.048 0.075-0.012 0.019-0.024 0.037-0.035 0.056-0.016 0.027-0.032 0.054-0.047 0.082-0.010 0.018-0.020 0.035-0.030 0.053-0.009 0.015-0.027 0.049-0.043 0.082l-0.009 0.020c-0.006 0.012-0.013 0.024-0.019 0.037-0.022 0.046-0.043 0.093-0.064 0.14-0.007 0.016-0.013 0.033-0.020 0.049-0.013 0.032-0.026 0.064-0.038 0.097-0.007 0.020-0.014 0.040-0.021 0.060-0.010 0.030-0.021 0.059-0.030 0.089-0.007 0.021-0.013 0.043-0.020 0.065-0.009 0.029-0.017 0.058-0.025 0.088-0.009 0.029-0.022 0.082-0.034 0.135l-0.004 0.021c-0.005 0.023-0.010 0.045-0.014 0.068-0.002 0.010-0.005 0.020-0.006 0.031h-2.785c-0.4 0-0.725-0.325-0.725-0.725v-3.252c0-0.001 0-0.002 0-0.004 0-0.841 0.578-1.546 1.359-1.74l0.012-0.003c0.356-0.087 0.662-0.186 0.912-0.296h22.7c0.345 0 0.625-0.28 0.625-0.625s-0.28-0.625-0.625-0.625h-13.433v-11.301c0-0.759 0.618-1.377 1.377-1.377h15.172c1.198 0 1.377 1.679 1.377 2.68v16.254h0c0 0.883-0.636 1.014-1.014 1.014z"></path>
<path d="M26.925 13.235c0-0.82-0.576-1.508-1.345-1.682 0.004-0.043 0.007-0.087 0.009-0.13v-0c0.014-0.509-0.176-0.992-0.535-1.361-0.365-0.376-0.875-0.591-1.4-0.591-0.634 0-1.198 0.308-1.551 0.783-0.353-0.475-0.918-0.783-1.553-0.783-0.52 0-1.026 0.213-1.39 0.584-0.361 0.368-0.555 0.853-0.545 1.364 0.001 0.046 0.004 0.091 0.008 0.136-0.769 0.173-1.345 0.861-1.345 1.682 0 0.694 0.413 1.293 1.005 1.566-0.418 0.517-0.661 1.17-0.661 1.862 0 1.632 1.328 2.96 2.96 2.96 0.538 0 1.063-0.147 1.519-0.42 0.434 0.264 0.958 0.42 1.519 0.42h0c1.632 0 2.96-1.328 2.96-2.96 0-0.691-0.244-1.345-0.661-1.862 0.593-0.273 1.005-0.872 1.005-1.566zM23.654 10.72c0.189 0 0.372 0.077 0.504 0.212 0.122 0.125 0.186 0.287 0.182 0.455-0.011 0.383-0.321 0.698-0.692 0.703-0.105-0-0.204-0.023-0.292-0.065l0.004 0.002c-0.011-0.005-0.022-0.011-0.033-0.016-0.059-0.032-0.11-0.069-0.155-0.114l0 0c-0.131-0.13-0.202-0.304-0.201-0.49 0.002-0.379 0.309-0.687 0.685-0.687zM20.052 10.929c0.126-0.129 0.301-0.209 0.495-0.209 0.001 0 0.002 0 0.003 0h-0c0.377 0 0.684 0.308 0.685 0.686 0 0.001 0 0.002 0 0.004 0 0.193-0.079 0.367-0.206 0.492l-0 0c-0.044 0.043-0.093 0.080-0.147 0.109l-0.003 0.002c-0.020 0.009-0.040 0.019-0.061 0.029-0.074 0.031-0.159 0.049-0.249 0.049-0.003 0-0.006-0-0.009-0h0c-0.376-0.006-0.688-0.319-0.695-0.697-0.003-0.173 0.063-0.338 0.187-0.464zM18.528 13.235c-0-0.261 0.213-0.474 0.474-0.474s0.474 0.213 0.474 0.474c0 0.054-0.009 0.105-0.026 0.153-0.016 0.031-0.031 0.063-0.045 0.095-0.084 0.135-0.233 0.226-0.403 0.226-0.261 0-0.474-0.213-0.474-0.474zM23.621 18.373c-0.426-0-0.815-0.156-1.114-0.414l0.002 0.002c-0.108-0.094-0.251-0.151-0.406-0.151-0 0-0 0-0.001 0h0c-0 0-0 0-0 0-0.156 0-0.298 0.057-0.407 0.151l0.001-0.001c-0.297 0.256-0.686 0.412-1.112 0.412h-0c-0.943 0-1.71-0.767-1.71-1.71 0-0.715 0.451-1.36 1.121-1.606 0.221-0.083 0.381-0.282 0.406-0.521l0-0.003c0.019-0.184 0.065-0.353 0.133-0.51l-0.004 0.011c0.022-0.042 0.043-0.085 0.062-0.13 0.169-0.313 0.423-0.562 0.731-0.719l0.010-0.004c0.027-0.012 0.054-0.024 0.081-0.038 0.202-0.091 0.438-0.143 0.687-0.143 0.001 0 0.002 0 0.002 0h-0c0.244 0 0.477 0.051 0.688 0.143 0.027 0.013 0.053 0.026 0.081 0.038 0.319 0.162 0.573 0.411 0.738 0.715l0.004 0.009c0.019 0.044 0.040 0.087 0.062 0.13 0.064 0.146 0.11 0.315 0.128 0.492l0.001 0.007c0.025 0.242 0.185 0.44 0.402 0.522l0.004 0.001c0.671 0.246 1.121 0.892 1.121 1.606 0 0.943-0.767 1.71-1.71 1.71zM25.201 13.709c-0.17 0-0.319-0.091-0.403-0.226-0.022-0.050-0.037-0.082-0.053-0.113l0.008 0.017c-0.016-0.046-0.026-0.098-0.026-0.153v-0c0-0.261 0.213-0.474 0.474-0.474s0.474 0.213 0.474 0.474c-0 0.261-0.213 0.474-0.474 0.474z"></path>
<path d="M29.369 21.214c-0.009-0.045-0.021-0.084-0.037-0.121l0.002 0.004c-0.017-0.041-0.037-0.077-0.059-0.11l0.001 0.002c-0.024-0.036-0.049-0.067-0.078-0.095v0c-0.028-0.028-0.059-0.054-0.093-0.076l-0.002-0.001c-0.064-0.043-0.14-0.075-0.221-0.092l-0.004-0.001c-0.037-0.008-0.079-0.012-0.122-0.012s-0.085 0.004-0.126 0.013l0.004-0.001c-0.040 0.008-0.079 0.020-0.117 0.036s-0.074 0.035-0.108 0.058c-0.034 0.023-0.066 0.049-0.095 0.078s-0.055 0.061-0.078 0.095c-0.023 0.034-0.042 0.070-0.057 0.108s-0.028 0.077-0.036 0.117c-0.008 0.040-0.012 0.081-0.012 0.122s0.004 0.082 0.012 0.122c0.008 0.039 0.020 0.079 0.036 0.117s0.035 0.074 0.058 0.108c0.022 0.034 0.049 0.066 0.078 0.095s0.061 0.055 0.095 0.078c0.034 0.023 0.070 0.041 0.108 0.057s0.078 0.028 0.117 0.036c0.040 0.008 0.081 0.012 0.122 0.012s0.082-0.004 0.122-0.012c0.040-0.008 0.079-0.020 0.117-0.036s0.074-0.034 0.108-0.057c0.034-0.023 0.066-0.049 0.095-0.078s0.055-0.061 0.078-0.095c0.022-0.034 0.042-0.070 0.058-0.108s0.027-0.078 0.036-0.117c0.008-0.041 0.012-0.082 0.012-0.122s-0.004-0.082-0.012-0.122z"></path>
<path d="M22.101 0c-0.345 0-0.625 0.28-0.625 0.625v1.046c0 0.345 0.28 0.625 0.625 0.625s0.625-0.28 0.625-0.625v-1.046c0-0.345-0.28-0.625-0.625-0.625z"></path>
<path d="M19.468 2.43l-0.872-0.685c-0.105-0.083-0.24-0.133-0.386-0.133-0.199 0-0.376 0.093-0.491 0.238l-0.001 0.001c-0.213 0.272-0.166 0.664 0.106 0.877l0.872 0.685c0.105 0.083 0.239 0.133 0.385 0.133 0 0 0 0 0 0h-0c0 0 0.001 0 0.001 0 0.199 0 0.376-0.093 0.49-0.238l0.001-0.001c0.213-0.272 0.166-0.664-0.106-0.878z"></path>
<path d="M26.484 1.851c-0.213-0.272-0.606-0.319-0.878-0.106l-0.872 0.685c-0.271 0.213-0.319 0.606-0.106 0.878 0.115 0.146 0.292 0.239 0.491 0.239 0 0 0.001 0 0.001 0h-0c0 0 0 0 0 0 0.146 0 0.28-0.050 0.386-0.134l-0.001 0.001 0.872-0.685c0.271-0.213 0.319-0.606 0.106-0.878z"></path>
</symbol>
<symbol id="icon-vitamins" viewBox="0 0 32 32">
<path d="M28.966 18.837c-1.747-0.594-4.056-0.922-6.504-0.922-0.153 0-0.305 0.001-0.457 0.004-2.277 0.038-4.409 0.361-6.047 0.918-0.333 0.112-0.59 0.213-0.841 0.324l0.065-0.026v-9.987c0-4.186-3.405-7.591-7.591-7.591s-7.591 3.405-7.591 7.591v13.703c0 4.186 3.405 7.591 7.591 7.591 1.328 0 2.635-0.348 3.779-1.006 0.722-0.415 1.37-0.948 1.919-1.571 0.399 0.56 1.188 1.152 2.669 1.656 1.747 0.594 4.056 0.922 6.504 0.922s4.757-0.327 6.504-0.922c2.508-0.854 3.034-1.959 3.034-2.737v-5.21c0-0.777-0.526-1.883-3.034-2.737zM14.174 21.574c0-0.025 0.003-0.049 0.007-0.072l-0 0.003 0.001-0.006c0.021-0.113 0.089-0.244 0.214-0.386l0.002-0.003c0.019-0.021 0.040-0.043 0.061-0.065 0.014-0.015 0.029-0.029 0.044-0.044l0.018-0.017c0.105-0.097 0.231-0.194 0.377-0.288 0.002-0.002 0.005-0.004 0.007-0.005 0.342-0.222 0.817-0.452 1.456-0.669 1.62-0.551 3.787-0.855 6.101-0.855 2.108 0 4.093 0.253 5.655 0.715l-13.376 2.465c-0.402-0.296-0.567-0.57-0.568-0.77v-0.001zM13.931 19.846c-0.482 0.369-0.75 0.744-0.886 1.092-0.042 0.104-0.077 0.226-0.098 0.352l-0.001 0.010v0c-0.008 0.048-0.015 0.106-0.019 0.165l-0 0.005-0.001 0.016c-0.002 0.029-0.002 0.058-0.002 0.086v4.71c-1.175 1.825-3.155 2.909-5.333 2.909-3.496 0-6.341-2.844-6.341-6.341v-6.227h1.25v3.375c0 0.345 0.28 0.625 0.625 0.625s0.625-0.28 0.625-0.625v-3.375h10.181v3.221zM13.931 15.375h-10.181v-6.227c0-2.118 1.723-3.841 3.841-3.841s3.841 1.723 3.841 3.841c0 0.345 0.28 0.625 0.625 0.625s0.625-0.28 0.625-0.625c0-2.807-2.284-5.091-5.091-5.091s-5.091 2.284-5.091 5.091v6.227h-1.25v-6.227c0-3.496 2.844-6.341 6.341-6.341s6.341 2.844 6.341 6.341v6.227zM30.75 26.784c0 0.373-0.573 1.004-2.187 1.553-1.62 0.551-3.787 0.855-6.101 0.855s-4.481-0.304-6.101-0.855c-1.614-0.549-2.187-1.18-2.187-1.553v-0.32l0-0.001v-2.989c0.438 0.291 1.018 0.576 1.784 0.836 1.747 0.594 4.056 0.922 6.504 0.922s4.757-0.327 6.504-0.922c0.766-0.261 1.346-0.545 1.784-0.836v3.31zM28.563 23.127c-1.62 0.551-3.787 0.855-6.101 0.855-2.139 0-4.151-0.26-5.723-0.735l13.407-2.471c0.428 0.306 0.603 0.591 0.603 0.797 0 0.373-0.573 1.004-2.187 1.553z"></path>
<path d="M3.567 22.039c-0.029-0.029-0.061-0.055-0.095-0.078-0.031-0.021-0.067-0.040-0.104-0.056l-0.004-0.002c-0.038-0.016-0.077-0.027-0.117-0.036-0.037-0.008-0.079-0.012-0.122-0.012s-0.085 0.004-0.126 0.013l0.004-0.001c-0.040 0.008-0.079 0.020-0.118 0.036s-0.074 0.035-0.107 0.058c-0.034 0.023-0.066 0.049-0.095 0.078s-0.055 0.061-0.078 0.095c-0.023 0.034-0.042 0.070-0.058 0.108s-0.028 0.077-0.036 0.117c-0.008 0.040-0.013 0.081-0.013 0.122s0.004 0.082 0.013 0.122c0.007 0.040 0.020 0.079 0.036 0.117s0.034 0.074 0.058 0.108c0.022 0.034 0.049 0.066 0.078 0.095 0.085 0.084 0.194 0.145 0.316 0.17l0.004 0.001c0.040 0.008 0.081 0.012 0.122 0.012 0 0 0.001 0 0.002 0 0.086 0 0.167-0.017 0.241-0.049l-0.004 0.002c0.042-0.017 0.077-0.036 0.11-0.059l-0.002 0.001c0.034-0.023 0.066-0.049 0.095-0.078s0.055-0.061 0.078-0.095c0.022-0.034 0.042-0.071 0.058-0.108s0.028-0.077 0.036-0.117c0.008-0.041 0.012-0.081 0.012-0.122 0-0.164-0.067-0.326-0.183-0.442z"></path>
</symbol>
</defs>
</svg>
